<svg width="423" height="539" viewBox="0 0 423 539" fill="none" xmlns="http://www.w3.org/2000/svg">
<g clip-path="url(#clip0_4637_1787)">
<path opacity="0.2" d="M321.222 25.0996H21.613C14.7517 25.0996 9.18945 30.6618 9.18945 37.5232V400.634C9.18945 407.496 14.7517 413.058 21.613 413.058H321.222C328.083 413.058 333.646 407.496 333.646 400.634V37.5232C333.646 30.6618 328.083 25.0996 321.222 25.0996Z" fill="black"/>
<path d="M311.756 18H12.1472C5.28585 18 -0.276367 23.5622 -0.276367 30.4236V393.535C-0.276367 400.396 5.28585 405.958 12.1472 405.958H311.756C318.617 405.958 324.18 400.396 324.18 393.535V30.4236C324.18 23.5622 318.617 18 311.756 18Z" fill="#E3E3E3" stroke="#263238" stroke-width="1.5" stroke-linecap="round" stroke-linejoin="round"/>
<path d="M276.781 18H34.9473V405.958H276.781V18Z" fill="white" stroke="#263238" stroke-width="1.5" stroke-linecap="round" stroke-linejoin="round"/>
<path d="M313.413 18.9121V406.716C316.377 406.387 319.116 404.977 321.105 402.754C323.093 400.532 324.193 397.654 324.192 394.672V30.957C324.19 27.9754 323.09 25.099 321.102 22.8771C319.113 20.6553 316.376 19.2437 313.413 18.9121Z" fill="#B2B2B2" stroke="#263238" stroke-width="1.5" stroke-linecap="round" stroke-linejoin="round"/>
<path d="M324.192 169.318H313.413V230.135H324.192V169.318Z" fill="#808080" stroke="#263238" stroke-width="1.5" stroke-linecap="round" stroke-linejoin="round"/>
<path d="M324.192 68.9344V30.9538C324.192 29.3617 323.878 27.7853 323.268 26.3145C322.659 24.8438 321.765 23.5076 320.639 22.3824C319.512 21.2572 318.175 20.365 316.704 19.7568C315.233 19.1486 313.656 18.8363 312.064 18.8379H11.8514C10.2593 18.8363 8.68253 19.1486 7.21119 19.7568C5.73986 20.365 4.40281 21.2572 3.27649 22.3824C2.15017 23.5076 1.25666 24.8438 0.647034 26.3145C0.0374122 27.7853 -0.276368 29.3617 -0.276367 30.9538V68.9344H324.192Z" fill="#B2B2B2" stroke="#263238" stroke-width="1.5" stroke-linecap="round" stroke-linejoin="round"/>
<path d="M155.575 38.4707H17.5312V47.6523H155.575V38.4707Z" fill="white" stroke="#263238" stroke-width="1.5" stroke-linecap="round" stroke-linejoin="round"/>
<path d="M324.18 52.584H-0.276367V68.9358H324.18V52.584Z" fill="#263238" stroke="#263238" stroke-width="1.5" stroke-linecap="round" stroke-linejoin="round"/>
<path d="M7.24902 56.834H15.6852" stroke="white" stroke-width="1.5" stroke-linecap="round" stroke-linejoin="round"/>
<path d="M7.24902 60.502H15.6852" stroke="white" stroke-width="1.5" stroke-linecap="round" stroke-linejoin="round"/>
<path d="M7.24902 64.166H15.6852" stroke="white" stroke-width="1.5" stroke-linecap="round" stroke-linejoin="round"/>
<path d="M50.8975 56.6777V66.2143" stroke="white" stroke-width="1.5" stroke-linecap="round" stroke-linejoin="round"/>
<path d="M100.627 56.6777V66.2143" stroke="white" stroke-width="1.5" stroke-linecap="round" stroke-linejoin="round"/>
<path d="M150.356 56.6777V66.2143" stroke="white" stroke-width="1.5" stroke-linecap="round" stroke-linejoin="round"/>
<path d="M200.075 56.6777V66.2143" stroke="white" stroke-width="1.5" stroke-linecap="round" stroke-linejoin="round"/>
<path d="M249.804 56.6777V66.2143" stroke="white" stroke-width="1.5" stroke-linecap="round" stroke-linejoin="round"/>
<path d="M324.192 32.9653V30.9538C324.192 29.3617 323.878 27.7853 323.268 26.3145C322.659 24.8438 321.765 23.5076 320.639 22.3824C319.512 21.2572 318.175 20.365 316.704 19.7568C315.233 19.1486 313.656 18.8363 312.064 18.8379H11.8514C10.2593 18.8363 8.68253 19.1486 7.21119 19.7568C5.73986 20.365 4.40281 21.2572 3.27649 22.3824C2.15017 23.5076 1.25666 24.8438 0.647034 26.3145C0.0374122 27.7853 -0.276368 29.3617 -0.276367 30.9538V32.9653H324.192Z" fill="#263238" stroke="#263238" stroke-width="1.5" stroke-linecap="round" stroke-linejoin="round"/>
<path d="M277.788 29.5595C279.787 29.5595 281.408 27.9385 281.408 25.9389C281.408 23.9393 279.787 22.3184 277.788 22.3184C275.788 22.3184 274.167 23.9393 274.167 25.9389C274.167 27.9385 275.788 29.5595 277.788 29.5595Z" fill="white" stroke="#263238" stroke-width="1.5" stroke-linecap="round" stroke-linejoin="round"/>
<path d="M289.205 29.5595C291.204 29.5595 292.825 27.9385 292.825 25.9389C292.825 23.9393 291.204 22.3184 289.205 22.3184C287.205 22.3184 285.584 23.9393 285.584 25.9389C285.584 27.9385 287.205 29.5595 289.205 29.5595Z" fill="white" stroke="#263238" stroke-width="1.5" stroke-linecap="round" stroke-linejoin="round"/>
<path d="M304.243 25.9389C304.243 25.2229 304.03 24.5229 303.632 23.9275C303.235 23.3321 302.669 22.868 302.008 22.594C301.346 22.3199 300.618 22.2482 299.916 22.3879C299.213 22.5276 298.568 22.8725 298.062 23.3788C297.556 23.8852 297.211 24.5303 297.071 25.2326C296.931 25.9349 297.003 26.6629 297.277 27.3245C297.551 27.9861 298.015 28.5515 298.611 28.9493C299.206 29.3472 299.906 29.5595 300.622 29.5595C301.582 29.5595 302.503 29.1781 303.182 28.4991C303.861 27.8201 304.243 26.8992 304.243 25.9389Z" fill="white" stroke="#263238" stroke-width="1.5" stroke-linecap="round" stroke-linejoin="round"/>
<path d="M-0.276367 383.326V394.673C-0.276367 397.89 1.00138 400.974 3.27577 403.249C5.55017 405.523 8.63491 406.801 11.8514 406.801H312.064C315.28 406.801 318.365 405.523 320.639 403.249C322.914 400.974 324.192 397.89 324.192 394.673V383.326H-0.276367Z" fill="#B2B2B2" stroke="#263238" stroke-width="1.5" stroke-linecap="round" stroke-linejoin="round"/>
<path d="M238.232 124.107H58.3984V224.916H238.232V124.107Z" fill="#001AAF" stroke="#263238" stroke-width="1.5" stroke-linecap="round" stroke-linejoin="round"/>
<path d="M238.221 180.652L198.039 154.764L157.16 195.631L128.55 162.253L60.2915 223.78L58.3984 224.927H238.221V180.652Z" fill="white" stroke="#263238" stroke-width="1.5" stroke-linecap="round" stroke-linejoin="round"/>
<path d="M86.3224 161.582C94.2228 161.582 100.627 155.178 100.627 147.278C100.627 139.377 94.2228 132.973 86.3224 132.973C78.4221 132.973 72.0176 139.377 72.0176 147.278C72.0176 155.178 78.4221 161.582 86.3224 161.582Z" fill="white" stroke="#263238" stroke-width="1.5" stroke-linecap="round" stroke-linejoin="round"/>
<path d="M59.0728 231.732H237.546" stroke="#263238" stroke-width="1.5" stroke-miterlimit="10"/>
<path d="M59.0728 239.906H166.022" stroke="#263238" stroke-width="1.5" stroke-miterlimit="10"/>
<path d="M215.29 255.209H238.22" stroke="#263238" stroke-width="1.5" stroke-miterlimit="10"/>
<path d="M188.005 255.209H212.64" stroke="#263238" stroke-width="1.5" stroke-miterlimit="10"/>
<path d="M178.197 255.209H185.355" stroke="#263238" stroke-width="1.5" stroke-miterlimit="10"/>
<path d="M144.547 255.209H176.339" stroke="#263238" stroke-width="1.5" stroke-miterlimit="10"/>
<path d="M103.206 255.209H141.104" stroke="#263238" stroke-width="1.5" stroke-miterlimit="10"/>
<path d="M72.999 255.209H99.2305" stroke="#263238" stroke-width="1.5" stroke-miterlimit="10"/>
<path d="M58.6465 255.209H69.5556" stroke="#263238" stroke-width="1.5" stroke-miterlimit="10"/>
<path d="M81.5768 264.682H58.6465" stroke="#263238" stroke-width="1.5" stroke-miterlimit="10"/>
<path d="M108.874 264.682H84.2275" stroke="#263238" stroke-width="1.5" stroke-miterlimit="10"/>
<path d="M118.682 264.682H111.523" stroke="#263238" stroke-width="1.5" stroke-miterlimit="10"/>
<path d="M152.333 264.682H120.528" stroke="#263238" stroke-width="1.5" stroke-miterlimit="10"/>
<path d="M193.662 264.682H155.776" stroke="#263238" stroke-width="1.5" stroke-miterlimit="10"/>
<path d="M223.868 264.682H197.637" stroke="#263238" stroke-width="1.5" stroke-miterlimit="10"/>
<path d="M238.222 264.682H227.312" stroke="#263238" stroke-width="1.5" stroke-miterlimit="10"/>
<path d="M215.29 273.75H238.22" stroke="#263238" stroke-width="1.5" stroke-miterlimit="10"/>
<path d="M188.005 273.75H212.64" stroke="#263238" stroke-width="1.5" stroke-miterlimit="10"/>
<path d="M178.197 273.75H185.355" stroke="#263238" stroke-width="1.5" stroke-miterlimit="10"/>
<path d="M144.547 273.75H176.339" stroke="#263238" stroke-width="1.5" stroke-miterlimit="10"/>
<path d="M103.206 273.75H141.104" stroke="#263238" stroke-width="1.5" stroke-miterlimit="10"/>
<path d="M72.999 273.75H99.2305" stroke="#263238" stroke-width="1.5" stroke-miterlimit="10"/>
<path d="M58.6465 273.75H69.5556" stroke="#263238" stroke-width="1.5" stroke-miterlimit="10"/>
<path d="M81.5768 283.225H58.6465" stroke="#263238" stroke-width="1.5" stroke-miterlimit="10"/>
<path d="M108.874 283.225H84.2275" stroke="#263238" stroke-width="1.5" stroke-miterlimit="10"/>
<path d="M118.682 283.225H111.523" stroke="#263238" stroke-width="1.5" stroke-miterlimit="10"/>
<path d="M152.333 283.225H120.528" stroke="#263238" stroke-width="1.5" stroke-miterlimit="10"/>
<path d="M193.662 283.225H155.776" stroke="#263238" stroke-width="1.5" stroke-miterlimit="10"/>
<path d="M223.868 283.225H197.637" stroke="#263238" stroke-width="1.5" stroke-miterlimit="10"/>
<path d="M238.222 283.225H227.312" stroke="#263238" stroke-width="1.5" stroke-miterlimit="10"/>
<path d="M215.29 292.289H238.22" stroke="#263238" stroke-width="1.5" stroke-miterlimit="10"/>
<path d="M188.005 292.289H212.64" stroke="#263238" stroke-width="1.5" stroke-miterlimit="10"/>
<path d="M178.197 292.289H185.355" stroke="#263238" stroke-width="1.5" stroke-miterlimit="10"/>
<path d="M144.547 292.289H176.339" stroke="#263238" stroke-width="1.5" stroke-miterlimit="10"/>
<path d="M103.206 292.289H141.104" stroke="#263238" stroke-width="1.5" stroke-miterlimit="10"/>
<path d="M72.999 292.289H99.2305" stroke="#263238" stroke-width="1.5" stroke-miterlimit="10"/>
<path d="M58.6465 292.289H69.5556" stroke="#263238" stroke-width="1.5" stroke-miterlimit="10"/>
<path d="M81.5768 301.768H58.6465" stroke="#263238" stroke-width="1.5" stroke-miterlimit="10"/>
<path d="M108.874 301.768H84.2275" stroke="#263238" stroke-width="1.5" stroke-miterlimit="10"/>
<path d="M118.682 301.768H111.523" stroke="#263238" stroke-width="1.5" stroke-miterlimit="10"/>
<path d="M152.333 301.768H120.528" stroke="#263238" stroke-width="1.5" stroke-miterlimit="10"/>
<path d="M193.662 301.768H155.776" stroke="#263238" stroke-width="1.5" stroke-miterlimit="10"/>
<path d="M223.868 301.768H197.637" stroke="#263238" stroke-width="1.5" stroke-miterlimit="10"/>
<path d="M238.222 301.768H227.312" stroke="#263238" stroke-width="1.5" stroke-miterlimit="10"/>
<path d="M215.29 310.828H238.22" stroke="#263238" stroke-width="1.5" stroke-miterlimit="10"/>
<path d="M188.005 310.828H212.64" stroke="#263238" stroke-width="1.5" stroke-miterlimit="10"/>
<path d="M178.197 310.828H185.355" stroke="#263238" stroke-width="1.5" stroke-miterlimit="10"/>
<path d="M144.547 310.828H176.339" stroke="#263238" stroke-width="1.5" stroke-miterlimit="10"/>
<path d="M103.206 310.828H141.104" stroke="#263238" stroke-width="1.5" stroke-miterlimit="10"/>
<path d="M72.999 310.828H99.2305" stroke="#263238" stroke-width="1.5" stroke-miterlimit="10"/>
<path d="M58.6465 310.828H69.5556" stroke="#263238" stroke-width="1.5" stroke-miterlimit="10"/>
<path d="M81.5768 320.307H58.6465" stroke="#263238" stroke-width="1.5" stroke-miterlimit="10"/>
<path d="M108.874 320.307H84.2275" stroke="#263238" stroke-width="1.5" stroke-miterlimit="10"/>
<path d="M118.682 320.307H111.523" stroke="#263238" stroke-width="1.5" stroke-miterlimit="10"/>
<path d="M152.333 320.307H120.528" stroke="#263238" stroke-width="1.5" stroke-miterlimit="10"/>
<path d="M193.662 320.307H155.776" stroke="#263238" stroke-width="1.5" stroke-miterlimit="10"/>
<path d="M223.868 320.307H197.637" stroke="#263238" stroke-width="1.5" stroke-miterlimit="10"/>
<path d="M238.222 320.307H227.312" stroke="#263238" stroke-width="1.5" stroke-miterlimit="10"/>
<path d="M215.29 329.369H238.22" stroke="#263238" stroke-width="1.5" stroke-miterlimit="10"/>
<path d="M188.005 329.369H212.64" stroke="#263238" stroke-width="1.5" stroke-miterlimit="10"/>
<path d="M178.197 329.369H185.355" stroke="#263238" stroke-width="1.5" stroke-miterlimit="10"/>
<path d="M144.547 329.369H176.339" stroke="#263238" stroke-width="1.5" stroke-miterlimit="10"/>
<path d="M103.206 329.369H141.104" stroke="#263238" stroke-width="1.5" stroke-miterlimit="10"/>
<path d="M72.999 329.369H99.2305" stroke="#263238" stroke-width="1.5" stroke-miterlimit="10"/>
<path d="M58.6465 329.369H69.5556" stroke="#263238" stroke-width="1.5" stroke-miterlimit="10"/>
<path d="M81.5768 338.848H58.6465" stroke="#263238" stroke-width="1.5" stroke-miterlimit="10"/>
<path d="M108.874 338.848H84.2275" stroke="#263238" stroke-width="1.5" stroke-miterlimit="10"/>
<path d="M118.682 338.848H111.523" stroke="#263238" stroke-width="1.5" stroke-miterlimit="10"/>
<path d="M152.333 338.848H120.528" stroke="#263238" stroke-width="1.5" stroke-miterlimit="10"/>
<path d="M193.662 338.848H155.776" stroke="#263238" stroke-width="1.5" stroke-miterlimit="10"/>
<path d="M223.868 338.848H197.637" stroke="#263238" stroke-width="1.5" stroke-miterlimit="10"/>
<path d="M238.222 338.848H227.312" stroke="#263238" stroke-width="1.5" stroke-miterlimit="10"/>
<path d="M215.29 347.912H238.22" stroke="#263238" stroke-width="1.5" stroke-miterlimit="10"/>
<path d="M188.005 347.912H212.64" stroke="#263238" stroke-width="1.5" stroke-miterlimit="10"/>
<path d="M178.197 347.912H185.355" stroke="#263238" stroke-width="1.5" stroke-miterlimit="10"/>
<path d="M144.547 347.912H176.339" stroke="#263238" stroke-width="1.5" stroke-miterlimit="10"/>
<path d="M103.206 347.912H141.104" stroke="#263238" stroke-width="1.5" stroke-miterlimit="10"/>
<path d="M72.999 347.912H99.2305" stroke="#263238" stroke-width="1.5" stroke-miterlimit="10"/>
<path d="M58.6465 347.912H69.5556" stroke="#263238" stroke-width="1.5" stroke-miterlimit="10"/>
<path d="M81.5768 357.375H58.6465" stroke="#263238" stroke-width="1.5" stroke-miterlimit="10"/>
<path d="M108.874 357.375H84.2275" stroke="#263238" stroke-width="1.5" stroke-miterlimit="10"/>
<path d="M118.682 357.375H111.523" stroke="#263238" stroke-width="1.5" stroke-miterlimit="10"/>
<path d="M152.333 357.375H120.528" stroke="#263238" stroke-width="1.5" stroke-miterlimit="10"/>
<path d="M193.662 357.375H155.776" stroke="#263238" stroke-width="1.5" stroke-miterlimit="10"/>
<path d="M223.868 357.375H197.637" stroke="#263238" stroke-width="1.5" stroke-miterlimit="10"/>
<path d="M238.222 357.375H227.312" stroke="#263238" stroke-width="1.5" stroke-miterlimit="10"/>
<path d="M215.29 366.439H238.22" stroke="#263238" stroke-width="1.5" stroke-miterlimit="10"/>
<path d="M188.005 366.439H212.64" stroke="#263238" stroke-width="1.5" stroke-miterlimit="10"/>
<path d="M178.197 366.439H185.355" stroke="#263238" stroke-width="1.5" stroke-miterlimit="10"/>
<path d="M144.547 366.439H176.339" stroke="#263238" stroke-width="1.5" stroke-miterlimit="10"/>
<path d="M103.206 366.439H141.104" stroke="#263238" stroke-width="1.5" stroke-miterlimit="10"/>
<path d="M72.999 366.439H99.2305" stroke="#263238" stroke-width="1.5" stroke-miterlimit="10"/>
<path d="M58.6465 366.439H69.5556" stroke="#263238" stroke-width="1.5" stroke-miterlimit="10"/>
<path d="M81.5768 375.914H58.6465" stroke="#263238" stroke-width="1.5" stroke-miterlimit="10"/>
<path d="M108.874 375.914H84.2275" stroke="#263238" stroke-width="1.5" stroke-miterlimit="10"/>
<path d="M118.682 375.914H111.523" stroke="#263238" stroke-width="1.5" stroke-miterlimit="10"/>
<path d="M152.333 375.914H120.528" stroke="#263238" stroke-width="1.5" stroke-miterlimit="10"/>
<path d="M193.662 375.914H155.776" stroke="#263238" stroke-width="1.5" stroke-miterlimit="10"/>
<path d="M223.868 375.914H197.637" stroke="#263238" stroke-width="1.5" stroke-miterlimit="10"/>
<path d="M238.222 375.914H227.312" stroke="#263238" stroke-width="1.5" stroke-miterlimit="10"/>
<path d="M64.9776 111.001L63.7234 117.556H60.375L66.5513 84.9707H71.8047L78.0283 117.497H74.4077L73.2008 111.001H64.9776ZM65.4391 107.889H72.6921L69.0242 89.1237L65.4391 107.889Z" fill="#263238"/>
<path d="M88.1562 84.9707C93.2676 84.9707 95.4092 87.5737 95.4092 92.413V95.0515C95.4092 98.6011 94.155 100.861 91.3627 101.748C94.3325 102.624 95.4565 105.038 95.4565 108.528V113.592C95.3503 114.927 95.5738 116.268 96.1073 117.497H92.4394C91.92 116.248 91.709 114.892 91.8241 113.545V108.457C91.8241 104.789 90.1085 103.63 87.0913 103.63H84.5356V117.52H80.915V84.9707H88.1562ZM87.2333 100.352C90.1085 100.352 91.8241 99.4175 91.8241 95.8916V92.7561C91.8241 89.8336 90.7592 88.2955 88.0615 88.2955H84.512V100.352H87.2333Z" fill="#263238"/>
<path d="M103.904 117.52V88.2955H97.9175V84.9707H113.477V88.2718H107.49V117.497L103.904 117.52Z" fill="#263238"/>
<path d="M119.57 84.9707V117.497H115.938V84.9707H119.57Z" fill="#263238"/>
<path d="M137.637 92.8497V95.7722H134.194V92.6604C134.194 89.7379 133.011 87.9276 130.384 87.9276C127.757 87.9276 126.574 89.6906 126.574 92.6604V109.817C126.574 112.739 127.757 114.55 130.384 114.55C133.011 114.55 134.194 112.787 134.194 109.817V105.628H137.637V109.663C137.637 114.585 135.271 117.839 130.301 117.839C125.332 117.839 123.001 114.585 123.001 109.663V92.8497C123.001 87.9276 125.367 84.6738 130.301 84.6738C135.235 84.6738 137.637 87.9276 137.637 92.8497Z" fill="#263238"/>
<path d="M140.938 117.52V84.9707H144.558V114.196H153.846V117.497L140.938 117.52Z" fill="#263238"/>
<path d="M168.163 99.3939V102.648H160.212V114.219H169.974V117.52H156.592V84.9707H169.974V88.2718H160.212V99.3702L168.163 99.3939Z" fill="#263238"/>
<path d="M214.194 323.823C214.194 323.823 184.03 331.036 173.538 346.118C163.046 361.2 138.128 408.413 131.571 417.594C125.014 426.774 102.719 439.889 98.7842 458.905C94.8498 477.922 99.4399 491.036 119.768 501.528C140.096 512.02 166.981 490.381 182.719 484.479L183.374 508.085H347.309L353.21 479.889C353.21 479.889 389.276 483.167 399.112 479.889C408.948 476.61 422.063 484.479 423.374 476.61C424.686 468.741 418.784 452.348 410.915 438.577C403.046 424.807 403.046 428.741 395.177 409.725C387.309 390.708 381.407 373.004 374.85 356.61C368.292 340.217 354.613 326.276 341.918 322.066C329.223 317.856 300.096 320.545 288.948 319.233C277.8 317.922 214.194 323.823 214.194 323.823Z" fill="#001AAF" stroke="#263238" stroke-width="1.5" stroke-linecap="round" stroke-linejoin="round"/>
<path d="M349.709 461.53C349.709 461.53 361.066 443.603 381.617 437.924" stroke="#263238" stroke-width="1.5" stroke-linecap="round" stroke-linejoin="round"/>
<path d="M381.066 422.014C382.813 421.12 384.608 420.323 386.443 419.627" stroke="#263238" stroke-width="1.5" stroke-linecap="round" stroke-linejoin="round"/>
<path d="M346.652 454.535C346.652 454.535 358.338 436.083 375.78 424.975" stroke="#263238" stroke-width="1.5" stroke-linecap="round" stroke-linejoin="round"/>
<path d="M354.522 388.781C347.964 405.266 338.338 433.45 340.095 452.781" stroke="#263238" stroke-width="1.5" stroke-linecap="round" stroke-linejoin="round"/>
<path d="M360.199 375.404C360.199 375.404 358.993 378.027 357.183 382.237" stroke="#263238" stroke-width="1.5" stroke-linecap="round" stroke-linejoin="round"/>
<path d="M132.476 441.779C141.431 444.268 149.468 449.308 155.61 456.284" stroke="#263238" stroke-width="1.5" stroke-linecap="round" stroke-linejoin="round"/>
<path d="M117.577 440.544C120.544 440.17 123.547 440.192 126.508 440.61" stroke="#263238" stroke-width="1.5" stroke-linecap="round" stroke-linejoin="round"/>
<path d="M141.983 429.727C149.682 435.209 159.544 444.31 163.478 456.717" stroke="#263238" stroke-width="1.5" stroke-linecap="round" stroke-linejoin="round"/>
<path d="M131.571 423.494C133.829 424.588 136.019 425.819 138.128 427.179" stroke="#263238" stroke-width="1.5" stroke-linecap="round" stroke-linejoin="round"/>
<path d="M242.286 356.846C242.286 356.846 250.745 370.944 271.899 370.472C293.053 370 301.971 346.971 301.971 335.22C301.971 323.469 294.456 315.482 274.719 320.177C254.981 324.872 232.882 325.357 242.286 356.846Z" fill="white" stroke="#263238" stroke-width="1.5" stroke-linecap="round" stroke-linejoin="round"/>
<path d="M245.577 329.106C245.577 329.106 239.938 348.385 242.286 356.844C243.954 362.445 246.324 367.812 249.341 372.818C249.341 372.818 265.315 357.775 267.702 355.9C270.089 354.024 284.62 370.47 286.509 372.345C288.397 374.221 299.191 367.65 302.482 352.136C305.774 336.621 303.427 318.3 300.135 313.605C296.843 308.909 293.079 308.437 293.079 308.437C293.079 308.437 257.8 304.673 245.577 329.106Z" fill="white" stroke="#263238" stroke-width="1.5" stroke-linecap="round" stroke-linejoin="round"/>
<path d="M248.87 330.997C248.87 330.997 262.496 354.026 266.732 354.485C270.968 354.944 289.748 339.456 294.929 326.761C300.109 314.066 295.86 300.439 295.86 300.439C295.86 300.439 279.886 320.649 269.079 327.233C258.273 333.817 248.87 330.997 248.87 330.997Z" fill="white" stroke="#263238" stroke-width="1.5" stroke-linecap="round" stroke-linejoin="round"/>
<path d="M269.079 327.233C263.3 330.95 256.333 332.355 249.564 331.168L249.105 331.404C249.997 332.886 253.381 338.486 257.053 343.81C260.088 344.477 263.264 343.961 265.932 342.368C279.492 335.207 290.023 311.115 290.023 311.115L284.004 314.105C279.178 319.194 273.643 324.44 269.079 327.233Z" fill="#263238" stroke="#263238" stroke-width="1.5" stroke-linecap="round" stroke-linejoin="round"/>
<path d="M217.25 276.44C212.439 257.592 169.252 255.532 196.922 221.992C224.592 188.453 282.932 190.429 296.571 198.408C310.211 206.387 317.036 233.262 318.233 247.322L297.78 288.243C302.841 275.323 288.146 260.766 279.732 257.574C271.318 254.383 247.228 249.907 241.242 257.574L217.25 276.44Z" fill="#001AAF" stroke="#263238" stroke-width="1.5" stroke-linecap="round" stroke-linejoin="round"/>
<path d="M229.5 238.499C229.5 238.499 219.255 240.753 214.088 255.324C208.921 269.894 225.891 304.202 227.714 309.37C229.721 314.878 235.216 320.006 238.993 324.307C245.131 331.284 254.324 340.531 264.514 339.153C277.222 337.435 290.259 317.763 295.859 307.494C301.459 297.225 302.495 281.684 302.495 281.684C302.495 281.684 309.052 282.156 309.052 273.225C309.052 264.294 309.983 250.668 305.288 250.668C302.188 250.826 299.221 251.981 296.829 253.96C285.517 249.583 274.912 250.466 265.354 242.999C249.8 230.736 229.5 238.499 229.5 238.499Z" fill="white" stroke="#263238" stroke-width="1.5" stroke-linecap="round" stroke-linejoin="round"/>
<path d="M246.522 300.912C246.709 301.811 247.088 302.659 247.632 303.399C248.176 304.138 248.873 304.752 249.676 305.198C250.479 305.643 251.369 305.91 252.284 305.981C253.2 306.052 254.12 305.924 254.981 305.607C262.024 303.732 262.968 301.384 262.968 301.384" stroke="#263238" stroke-width="1.5" stroke-linecap="round" stroke-linejoin="round"/>
<path d="M246.103 310.789C246.103 310.789 261.604 316.429 270.535 307.025" stroke="#263238" stroke-width="1.5" stroke-linecap="round" stroke-linejoin="round"/>
<path d="M259.217 275.364C259.217 275.364 265.329 268.321 279.427 272.544" stroke="#263238" stroke-width="3" stroke-linecap="round" stroke-linejoin="round"/>
<path d="M238.522 275.8C238.522 275.8 229.131 272.508 221.131 272.508" stroke="#263238" stroke-width="3" stroke-linecap="round" stroke-linejoin="round"/>
<path d="M238.509 281.778C238.876 284.401 238.128 286.578 236.843 286.762C235.558 286.945 234.22 285.017 233.853 282.447C233.486 279.876 234.22 277.647 235.505 277.463C236.791 277.28 238.128 279.208 238.509 281.778Z" fill="#263238"/>
<path d="M271.873 279.43C272.24 282.053 271.506 284.23 270.221 284.414C268.935 284.598 267.598 282.67 267.217 280.099C266.837 277.529 267.585 275.299 268.87 275.116C270.155 274.932 271.506 276.86 271.873 279.43Z" fill="#263238"/>
<path d="M299.439 444.477C299.439 444.477 298.128 439.231 291.57 433.986C285.013 428.74 269.275 424.805 269.275 429.395C269.275 433.986 285.013 447.756 289.603 454.313C294.193 460.871 298.784 475.297 308.62 482.51C318.456 489.723 367.636 505.461 388.62 506.772C409.603 508.084 423.374 494.313 422.718 479.887C422.062 465.461 411.57 452.346 394.521 449.723C377.472 447.1 369.603 455.625 359.767 458.248C349.931 460.871 342.062 463.494 342.062 463.494C342.062 463.494 347.308 445.789 345.997 440.543C344.685 435.297 335.767 431.979 335.767 431.979L328.947 425.422C328.947 425.422 315.177 414.274 313.21 414.274C311.243 414.274 303.374 405.094 293.538 405.094C283.702 405.094 271.243 412.307 275.177 416.241C279.111 420.176 287.636 417.553 292.226 417.553C296.816 417.553 301.407 427.389 301.407 427.389C301.407 427.389 295.505 431.323 297.472 433.946C299.439 436.569 300.751 438.536 300.751 438.536L299.439 444.477Z" fill="white" stroke="#263238" stroke-width="1.5" stroke-linecap="round" stroke-linejoin="round"/>
<path d="M300.41 437.749C300.41 437.749 301.368 442.995 305.433 442.995C309.499 442.995 307.82 437.028 309.249 435.126C310.679 433.225 314.495 426.287 314.495 426.287" stroke="#263238" stroke-width="1.5" stroke-linecap="round" stroke-linejoin="round"/>
<path d="M333.617 432.937C333.617 432.937 324.306 441.776 323.585 442.261C322.863 442.747 320.726 447.757 319.047 450.38C317.368 453.002 313.316 453.724 312.122 450.38C310.929 447.035 312.595 441.776 314.024 439.389C315.454 437.002 320.004 429.829 320.004 429.829C320.004 429.829 323.113 425.291 327.414 425.291" stroke="#263238" stroke-width="1.5" stroke-linecap="round" stroke-linejoin="round"/>
<path d="M328.607 438.199C328.607 438.199 323.584 445.124 323.584 447.76C323.584 450.396 321.918 457.071 324.069 458.029C326.22 458.986 329.079 458.986 330.521 455.878C331.964 452.77 333.617 449.189 333.617 449.189C333.617 449.189 336.974 448.953 338.403 446.566" stroke="#263238" stroke-width="1.5" stroke-linecap="round" stroke-linejoin="round"/>
<path d="M333.617 449.189C334.327 450.789 335.608 452.065 337.21 452.77" stroke="#263238" stroke-width="1.5" stroke-linecap="round" stroke-linejoin="round"/>
<path d="M311.676 414.065C310.831 413.974 309.982 414.189 309.282 414.67C308.582 415.151 308.077 415.867 307.859 416.688C306.666 419.797 301.446 427.429 301.446 427.429" stroke="#263238" stroke-width="1.5" stroke-linecap="round" stroke-linejoin="round"/>
<path d="M307.335 430.787C307.762 432.514 308.081 434.266 308.292 436.033" stroke="#263238" stroke-width="1.5" stroke-linecap="round" stroke-linejoin="round"/>
<path d="M312.83 429.596C313.323 431.481 314.52 433.105 316.174 434.133" stroke="#263238" stroke-width="1.5" stroke-linecap="round" stroke-linejoin="round"/>
<path d="M342.063 463.494C342.063 463.494 337.04 480.32 333.105 484.701" stroke="#263238" stroke-width="1.5" stroke-linecap="round" stroke-linejoin="round"/>
<path d="M161.682 405.409L198.889 507.035C199.348 508.305 200.187 509.402 201.293 510.176C202.399 510.951 203.716 511.365 205.066 511.363H302.495C303.56 511.372 304.611 511.121 305.556 510.633C306.502 510.144 307.315 509.433 307.924 508.56C308.534 507.687 308.922 506.679 309.054 505.623C309.187 504.567 309.06 503.494 308.686 502.498L272.332 404.373C271.421 401.907 269.773 399.781 267.612 398.284C265.451 396.787 262.882 395.992 260.253 396.006L167.768 396.557C166.714 396.566 165.677 396.829 164.747 397.324C163.816 397.819 163.018 398.531 162.421 399.399C161.824 400.268 161.445 401.268 161.317 402.314C161.188 403.36 161.313 404.422 161.682 405.409Z" fill="#263238" stroke="#263238" stroke-width="1.5" stroke-linecap="round" stroke-linejoin="round"/>
<path d="M151.243 463.497L153.21 447.759C153.21 447.759 159.767 445.792 156.489 434.645C153.21 423.497 151.243 422.186 155.177 422.186C159.111 422.186 166.98 424.153 168.948 430.71C170.915 437.268 171.57 449.071 171.57 449.071C171.57 449.071 218.128 442.513 221.406 442.513C224.685 442.513 227.964 445.792 222.718 448.415C217.472 451.038 191.243 462.841 191.243 462.841C191.243 462.841 224.685 455.628 226.652 455.628C228.62 455.628 235.177 455.628 231.898 458.907C228.62 462.186 220.095 466.12 220.095 466.12C220.095 466.12 235.177 463.497 234.521 468.087C233.865 472.677 218.128 477.267 218.128 477.267C218.128 477.267 225.341 477.267 223.374 480.546C221.406 483.825 192.554 494.317 186.652 496.94C180.751 499.563 163.046 499.563 163.046 499.563C155.324 504.02 146.896 507.125 138.128 508.743C123.702 511.366 108.62 510.71 102.062 495.628C95.5049 480.546 100.751 459.563 113.866 453.005C126.98 446.448 136.161 448.415 141.407 452.349C146.652 456.284 151.243 463.497 151.243 463.497Z" fill="white" stroke="#263238" stroke-width="1.5" stroke-linecap="round" stroke-linejoin="round"/>
<path d="M191.244 462.842L178.129 466.776" stroke="#263238" stroke-width="1.5" stroke-linecap="round" stroke-linejoin="round"/>
<path d="M220.095 466.119L182.062 477.922" stroke="#263238" stroke-width="1.5" stroke-linecap="round" stroke-linejoin="round"/>
<path d="M218.129 477.268L185.998 488.415" stroke="#263238" stroke-width="1.5" stroke-linecap="round" stroke-linejoin="round"/>
<path d="M151.243 463.494C151.243 463.494 148.62 468.74 140.751 463.494" stroke="#263238" stroke-width="1.5" stroke-linecap="round" stroke-linejoin="round"/>
<path d="M163.047 499.562L147.965 496.283" stroke="#263238" stroke-width="1.5" stroke-linecap="round" stroke-linejoin="round"/>
<path d="M171.571 449.068L157.8 451.691" stroke="#263238" stroke-width="1.5" stroke-linecap="round" stroke-linejoin="round"/>
</g>
<defs>
<clipPath id="clip0_4637_1787">
<rect width="423" height="538.5" fill="white"/>
</clipPath>
</defs>
</svg>
