<svg width="337" height="674" viewBox="0 0 337 674" fill="none" xmlns="http://www.w3.org/2000/svg">
<path d="M196 471.011C85.6402 486.298 67.2458 418.555 77.4474 91.001" stroke="#28BC77" stroke-width="4" stroke-dasharray="8 8"/>
<path d="M239.555 660.445H232.021V660.662H239.555V660.445Z" fill="#28BC77"/>
<path d="M48.5434 651.51H43.0557V651.726H48.5434V651.51Z" fill="#28BC77"/>
<path d="M274.879 475.519L279.791 476.365L283.428 455.286L278.516 454.44L274.879 475.519Z" fill="#28BC77"/>
<path d="M1 484.179V658.179H9.97479V502.025H168.529V658.179H179V484.179H1Z" fill="#D4D6D7"/>
<path d="M57.1296 418.721C55.1634 415.414 51.9354 418.3 51.9354 418.3C52.3902 411.942 46.6971 407.612 46.6971 407.612C46.6971 407.612 53.3146 407.612 54.239 401.134C55.1634 394.655 51.9354 397.676 48.898 397.631C45.8607 397.586 42.6913 406.65 46.6971 411.761C50.7028 416.872 49.6317 425.591 40.3877 433.964C38.1755 436.081 36.5159 438.732 35.5602 441.675C36.2645 433.979 36.6607 423.125 34.4451 415.895C30.6888 403.584 37.8492 400.277 39.9181 394.129C41.987 387.981 34.4451 382.764 34.4451 382.764C34.4451 382.764 41.5468 379.457 38.0693 375.669C34.5918 371.881 27.4607 372.392 27.4607 377.353C27.4607 382.313 32.3028 384.192 32.3028 384.192C32.3028 384.192 37.8492 390.1 37.8492 393.212C37.8492 396.323 32.3028 402.907 32.3028 402.907C32.3028 402.907 34.8412 397.24 29.7644 397C24.6875 396.759 23.0588 403.614 25.1423 406.695C27.2259 409.777 30.6888 407.161 30.6888 407.161C30.9008 410.751 31.4313 414.313 32.2735 417.804C32.787 419.578 32.5522 426.523 32.1121 433.738C31.1465 431.132 29.6046 428.791 27.6074 426.899C18.3781 418.526 17.3363 409.807 21.298 404.696C25.2597 399.585 22.1344 390.521 19.097 390.566C16.0597 390.611 12.8316 387.56 13.756 394.069C14.6804 400.577 21.298 400.547 21.298 400.547C21.298 400.547 15.6048 404.877 16.0744 411.235C16.0744 411.235 12.8316 408.349 10.8654 411.656C7.37325 417.579 15.4875 421.246 16.852 418.33C16.852 418.33 34.0782 430.822 29.9258 448.8L30.8942 450.303C30.7621 451.807 30.6888 452.633 30.6888 452.633L32.0387 452.047L33.506 454.362C33.4537 456.974 33.5861 459.586 33.9022 462.179L38.0106 455.94C33.8582 437.902 51.0843 425.47 51.0843 425.47C52.5076 428.312 60.6365 424.644 57.1296 418.721Z" fill="#D4D6D7"/>
<path d="M46 484.179L40.542 451.644L42.0829 442.179H24.9026L26.4435 451.644L21 484.179H46Z" fill="#D4D6D7"/>
<path d="M157 33.5969L136.479 22.5273L122.008 49.2964L142.529 60.366L157 33.5969Z" fill="#28BC77"/>
<path opacity="0.6" d="M157 33.5969L136.479 22.5273L122.008 49.2964L142.529 60.366L157 33.5969Z" fill="white"/>
<path d="M151.89 35.741L137.494 27.9756L136.712 29.4218L151.108 37.1872L151.89 35.741Z" fill="#28BC77"/>
<path d="M150.521 38.2723L136.126 30.5068L135.344 31.953L149.74 39.7185L150.521 38.2723Z" fill="#28BC77"/>
<path d="M149.151 40.8045L134.756 33.0391L133.974 34.4852L148.37 42.2507L149.151 40.8045Z" fill="#28BC77"/>
<path d="M147.777 43.3348L133.382 35.5693L132.6 37.0155L146.996 44.781L147.777 43.3348Z" fill="#28BC77"/>
<path d="M146.41 45.8651L132.015 38.0996L131.233 39.5458L145.628 47.3112L146.41 45.8651Z" fill="#28BC77"/>
<path d="M145.044 48.4041L130.648 40.6387L129.867 42.0849L144.262 49.8503L145.044 48.4041Z" fill="#28BC77"/>
<path d="M143.679 50.9315L129.283 43.166L128.501 44.6122L142.897 52.3776L143.679 50.9315Z" fill="#28BC77"/>
<path d="M137.227 50.7265L127.907 45.6992L127.125 47.1454L136.445 52.1727L137.227 50.7265Z" fill="#28BC77"/>
<path d="M102.479 33.798C99.5763 33.5012 96.8265 32.3511 94.5777 30.4932C92.3289 28.6354 90.6822 26.1531 89.8457 23.3603C89.0092 20.5675 89.0206 17.5897 89.8783 14.8033C90.7361 12.017 92.4017 9.54731 94.6646 7.70658C96.9275 5.86585 99.686 4.73676 102.591 4.46207C105.497 4.18739 108.418 4.77945 110.987 6.16339C113.555 7.54734 115.655 9.661 117.021 12.2371C118.387 14.8132 118.957 17.736 118.66 20.636C118.256 24.5226 116.327 28.0907 113.293 30.5581C110.26 33.0254 106.371 34.1905 102.479 33.798Z" fill="#28BC77"/>
<path opacity="0.3" d="M105.02 32.5265C112.433 31.9567 117.981 25.4915 117.41 18.0862C116.84 10.6809 110.368 5.13968 102.954 5.70948C95.5409 6.27929 89.9937 12.7444 90.5641 20.1497C91.1345 27.555 97.6066 33.0963 105.02 32.5265Z" fill="white"/>
<path d="M108.548 14.7722C106.995 13.6743 104.83 9.92133 104.83 9.90137L103.432 23.5025C103.465 23.1964 102.252 22.8837 101.433 22.8371C99.4813 22.6308 97.836 23.5491 97.7027 24.8334C97.5695 26.1176 99.035 27.3952 101.033 27.5949C103.032 27.7945 104.611 26.8762 104.751 25.5587C104.751 25.3591 104.611 25.1461 104.631 24.9665L105.703 14.4861C106.505 15.4078 107.489 16.1533 108.594 16.6753C110.066 17.3408 110.593 19.3836 110.593 19.3836C110.665 18.5055 110.515 17.6233 110.158 16.8177C109.801 16.0121 109.247 15.3088 108.548 14.7722Z" fill="white"/>
<path opacity="0.5" d="M106.481 23.84C111.687 21.1433 114.094 15.4635 111.857 11.1538C109.619 6.84413 103.585 5.53659 98.3793 8.23333C93.1734 10.9301 90.7668 16.6099 93.0041 20.9196C95.2414 25.2292 101.275 26.5368 106.481 23.84Z" fill="white"/>
<path d="M75.099 0.000312942L43.3955 2.57617L45.3261 26.2866L77.0296 23.7107L75.099 0.000312942Z" fill="#28BC77"/>
<path d="M73.6904 1.66378L45.1406 3.9834L46.8147 24.5435L75.3645 22.2239L73.6904 1.66378Z" fill="#28BC77"/>
<path opacity="0.5" d="M73.6904 1.66378L45.1406 3.9834L46.8147 24.5435L75.3645 22.2239L73.6904 1.66378Z" fill="white"/>
<path d="M75.134 19.4308L75.3605 22.2256L46.8098 24.5479L45.9971 14.5533L51.4661 8.92383L60.9053 16.7292L65.2619 12.9829L75.134 19.4308Z" fill="#28BC77"/>
<path opacity="0.3" d="M75.134 19.4308L75.3605 22.2256L46.8098 24.5479L45.9971 14.5533L51.4661 8.92383L60.9053 16.7292L65.2619 12.9829L75.134 19.4308Z" fill="white"/>
<path d="M69.3727 7.45098C69.4094 7.90479 69.3106 8.35928 69.0887 8.75699C68.8669 9.1547 68.532 9.47778 68.1264 9.68539C67.7207 9.89299 67.2626 9.97581 66.8098 9.92335C66.3571 9.8709 65.9301 9.68554 65.5828 9.3907C65.2355 9.09586 64.9835 8.70479 64.8586 8.26691C64.7338 7.82903 64.7417 7.36402 64.8814 6.93064C65.0211 6.49727 65.2863 6.115 65.6435 5.83216C66.0007 5.54932 66.4337 5.37861 66.888 5.3416C67.1898 5.31701 67.4936 5.35208 67.7818 5.4448C68.0701 5.53752 68.3372 5.68607 68.5679 5.88197C68.7987 6.07786 68.9885 6.31726 69.1266 6.58648C69.2647 6.8557 69.3483 7.14946 69.3727 7.45098Z" fill="#28BC77"/>
<path opacity="0.3" d="M69.3727 7.45098C69.4094 7.90479 69.3106 8.35928 69.0887 8.75699C68.8669 9.1547 68.532 9.47778 68.1264 9.68539C67.7207 9.89299 67.2626 9.97581 66.8098 9.92335C66.3571 9.8709 65.9301 9.68554 65.5828 9.3907C65.2355 9.09586 64.9835 8.70479 64.8586 8.26691C64.7338 7.82903 64.7417 7.36402 64.8814 6.93064C65.0211 6.49727 65.2863 6.115 65.6435 5.83216C66.0007 5.54932 66.4337 5.37861 66.888 5.3416C67.1898 5.31701 67.4936 5.35208 67.7818 5.4448C68.0701 5.53752 68.3372 5.68607 68.5679 5.88197C68.7987 6.07786 68.9885 6.31726 69.1266 6.58648C69.2647 6.8557 69.3483 7.14946 69.3727 7.45098Z" fill="white"/>
<path d="M14.2161 27.9946L12.9904 27.2427C12.7731 27.1085 12.5272 27.0272 12.2727 27.0052C12.0181 26.9833 11.762 27.0213 11.5249 27.1163L6.0825 29.412C5.85373 29.5048 5.65302 29.6554 5.50005 29.8491C5.34707 30.0427 5.24708 30.2727 5.20986 30.5166L5.01001 31.8474C4.97619 32.0907 4.87815 32.3207 4.72596 32.5136C4.57378 32.7066 4.37292 32.8556 4.14403 32.9453L0.893262 34.2762C0.70759 34.3515 0.53981 34.4649 0.400772 34.6091C0.261733 34.7533 0.15453 34.925 0.0860941 35.1131C0.0176585 35.3013 -0.0104832 35.5017 0.00348215 35.7014C0.0174475 35.9011 0.0732125 36.0956 0.167171 36.2724L8.827 53.9992C9.01009 54.3666 9.32464 54.6518 9.70834 54.7985C10.092 54.9452 10.5169 54.9425 10.8987 54.7911L36.6517 44.0512C36.8386 43.9774 37.0078 43.8649 37.1482 43.7212C37.2885 43.5774 37.3968 43.4057 37.466 43.2171C37.5352 43.0286 37.5637 42.8276 37.5497 42.6273C37.5356 42.427 37.4793 42.232 37.3844 42.0549L28.7246 24.3348C28.5427 23.9663 28.2286 23.6795 27.8448 23.5316C27.461 23.3837 27.0355 23.3854 26.6529 23.5363L15.6816 28.1211C15.4444 28.216 15.1883 28.2541 14.9338 28.2321C14.6792 28.2102 14.4334 28.1288 14.2161 27.9946Z" fill="#28BC77"/>
<path d="M29.9439 24.1943L6.35591 34.0691C5.87482 34.277 5.48692 34.6541 5.26587 35.1288C5.04482 35.6036 5.00602 36.1429 5.15686 36.6443L10.3194 52.967C10.3922 53.201 10.5138 53.4168 10.6762 53.6003C10.8387 53.7837 11.0383 53.9306 11.2618 54.0313C11.4854 54.1319 11.7278 54.184 11.973 54.1841C12.2182 54.1842 12.4606 54.1322 12.6842 54.0317L36.2789 44.1702C36.7581 43.96 37.1442 43.5826 37.3649 43.1086C37.5856 42.6346 37.6258 42.0965 37.478 41.595L32.3087 25.2723C32.2384 25.0366 32.1184 24.8186 31.9568 24.6331C31.7951 24.4475 31.5956 24.2987 31.3716 24.1966C31.1475 24.0944 30.9042 24.0414 30.658 24.041C30.4118 24.0406 30.1683 24.0929 29.9439 24.1943Z" fill="#28BC77"/>
<path opacity="0.5" d="M29.9439 24.1943L6.35591 34.0691C5.87482 34.277 5.48692 34.6541 5.26587 35.1288C5.04482 35.6036 5.00602 36.1429 5.15686 36.6443L10.3194 52.967C10.3922 53.201 10.5138 53.4168 10.6762 53.6003C10.8387 53.7837 11.0383 53.9306 11.2618 54.0313C11.4854 54.1319 11.7278 54.184 11.973 54.1841C12.2182 54.1842 12.4606 54.1322 12.6842 54.0317L36.2789 44.1702C36.7581 43.96 37.1442 43.5826 37.3649 43.1086C37.5856 42.6346 37.6258 42.0965 37.478 41.595L32.3087 25.2723C32.2384 25.0366 32.1184 24.8186 31.9568 24.6331C31.7951 24.4475 31.5956 24.2987 31.3716 24.1966C31.1475 24.0944 30.9042 24.0414 30.658 24.041C30.4118 24.0406 30.1683 24.0929 29.9439 24.1943Z" fill="white"/>
<path d="M116.529 75.3462C116.821 73.9725 116.969 72.5718 116.968 71.1674C116.968 68.5616 116.454 65.9813 115.456 63.5738C114.458 61.1664 112.995 58.979 111.15 57.1364C109.306 55.2938 107.116 53.8322 104.706 52.835C102.296 51.8378 99.7126 51.3246 97.1039 51.3246C95.8727 51.3258 94.6441 51.4394 93.4335 51.6639C92.9272 51.5708 92.4143 51.6639 91.8881 51.604C90.0159 47.5404 87.0092 44.1029 83.2292 41.7044C79.4491 39.3059 75.0563 38.0484 70.5782 38.0827H63.2507C60.1839 38.0678 57.1443 38.6575 54.306 39.8179C51.4677 40.9783 48.8864 42.6867 46.7101 44.8452C44.5338 47.0037 42.8052 49.5699 41.6233 52.3967C40.4415 55.2236 39.8295 58.2556 39.8225 61.3192C39.8225 61.4922 39.8225 61.5787 39.8225 61.7517C34.9766 62.6066 30.6295 65.2501 27.6439 69.1576C24.6583 73.0652 23.2525 77.9511 23.7053 82.8458C24.1582 87.7406 26.4366 92.2864 30.0886 95.5812C33.7405 98.8759 38.499 100.679 43.4197 100.632H115.363C118.72 100.785 122 99.5991 124.481 97.3361C126.963 95.073 128.443 91.9179 128.596 88.5647C128.749 85.2116 127.562 81.9352 125.296 79.4562C123.031 76.9773 119.872 75.4988 116.515 75.3462H116.529Z" fill="#28BC77"/>
<path d="M17.8683 138.869C17.7261 138.21 17.6545 137.538 17.6547 136.865C17.6547 135.615 17.9043 134.378 18.3893 133.224C18.8742 132.069 19.585 131.02 20.481 130.137C21.3771 129.253 22.4408 128.552 23.6116 128.074C24.7823 127.596 26.0371 127.35 27.3043 127.35C27.9024 127.351 28.4992 127.405 29.0873 127.513C29.3333 127.468 29.5824 127.513 29.8381 127.484C30.7475 125.535 32.2081 123.887 34.0443 122.737C35.8806 121.587 38.0145 120.984 40.1899 121H43.7494C45.2392 120.993 46.7157 121.276 48.0945 121.832C49.4733 122.389 50.7272 123.208 51.7844 124.243C52.8416 125.278 53.6813 126.509 54.2554 127.864C54.8296 129.22 55.1268 130.674 55.1302 132.143C55.1302 132.226 55.1302 132.267 55.1302 132.35C57.4843 132.76 59.596 134.028 61.0463 135.901C62.4966 137.775 63.1795 140.118 62.9596 142.465C62.7396 144.812 61.6327 146.992 59.8587 148.572C58.0847 150.152 55.7732 151.016 53.3828 150.994H18.4346C16.804 151.067 15.2106 150.498 14.0051 149.413C12.7996 148.328 12.0806 146.815 12.0064 145.207C11.9321 143.599 12.5087 142.028 13.6092 140.84C14.7098 139.651 16.2441 138.942 17.8748 138.869H17.8683Z" fill="#28BC77"/>
<path d="M145.803 201.929C146.099 200.567 146.247 199.179 146.247 197.787C146.247 195.205 145.728 192.648 144.72 190.262C143.712 187.877 142.235 185.709 140.373 183.883C138.51 182.057 136.299 180.608 133.866 179.62C131.433 178.632 128.825 178.123 126.191 178.123C124.948 178.125 123.707 178.237 122.485 178.46C121.974 178.367 121.456 178.46 120.925 178.4C119.035 174.373 115.999 170.967 112.182 168.59C108.366 166.213 103.931 164.967 99.4093 165.001H92.0111C88.9147 164.986 85.8457 165.57 82.98 166.72C80.1143 167.87 77.5082 169.563 75.3109 171.702C73.1136 173.841 71.3683 176.384 70.175 179.186C68.9817 181.987 68.3638 184.992 68.3568 188.028C68.3568 188.199 68.3568 188.285 68.3568 188.457C63.4641 189.304 59.075 191.924 56.0607 195.796C53.0463 199.668 51.6268 204.51 52.0841 209.361C52.5413 214.212 54.8417 218.716 58.5289 221.982C62.2161 225.247 67.0205 227.033 71.9887 226.987H144.626C148.015 227.138 151.327 225.963 153.833 223.721C156.338 221.478 157.832 218.351 157.987 215.028C158.141 211.705 156.943 208.458 154.655 206.002C152.368 203.545 149.179 202.08 145.79 201.929H145.803Z" fill="#93DEBB"/>
<path d="M82.9894 281.377C83.2319 280.257 83.354 279.115 83.3537 277.97C83.3537 275.846 82.9279 273.743 82.1007 271.78C81.2734 269.818 80.0609 268.035 78.5324 266.533C77.0038 265.031 75.1892 263.839 73.192 263.026C71.1949 262.213 69.0543 261.795 66.8926 261.795C65.8723 261.796 64.8542 261.889 63.851 262.072C63.4315 261.996 63.0065 262.072 62.5704 262.023C61.0189 258.71 58.5274 255.908 55.3949 253.953C52.2625 251.998 48.6223 250.973 44.9114 251.001H38.8393C36.2979 250.988 33.779 251.469 31.427 252.415C29.075 253.361 26.936 254.754 25.1325 256.513C23.3291 258.273 21.8966 260.365 20.9172 262.669C19.9378 264.973 19.4307 267.445 19.4249 269.942C19.4249 270.083 19.4249 270.154 19.4249 270.295C15.4092 270.992 11.8069 273.147 9.3328 276.332C6.85872 279.517 5.69373 283.5 6.069 287.49C6.44427 291.48 8.33237 295.186 11.3586 297.872C14.3849 300.558 18.3281 302.027 22.4058 301.989H82.0234C84.805 302.114 87.5231 301.147 89.5795 299.302C91.636 297.458 92.8625 294.886 92.9891 292.152C93.1158 289.419 92.1322 286.748 90.2548 284.727C88.3774 282.706 85.76 281.501 82.9783 281.377H82.9894Z" fill="#28BC77"/>
<path opacity="0.5" d="M116.529 75.3462C116.821 73.9725 116.969 72.5718 116.968 71.1674C116.968 68.5616 116.454 65.9813 115.456 63.5738C114.458 61.1664 112.995 58.979 111.15 57.1364C109.306 55.2938 107.116 53.8322 104.706 52.835C102.296 51.8378 99.7126 51.3246 97.1039 51.3246C95.8727 51.3258 94.6441 51.4394 93.4335 51.6639C92.9272 51.5708 92.4143 51.6639 91.8881 51.604C90.0159 47.5404 87.0092 44.1029 83.2292 41.7044C79.4491 39.3059 75.0563 38.0484 70.5782 38.0827H63.2507C60.1839 38.0678 57.1443 38.6575 54.306 39.8179C51.4677 40.9783 48.8864 42.6867 46.7101 44.8452C44.5338 47.0037 42.8052 49.5699 41.6233 52.3967C40.4415 55.2236 39.8295 58.2556 39.8225 61.3192C39.8225 61.4922 39.8225 61.5787 39.8225 61.7517C34.9766 62.6066 30.6295 65.2501 27.6439 69.1576C24.6583 73.0652 23.2525 77.9511 23.7053 82.8458C24.1582 87.7406 26.4366 92.2864 30.0886 95.5812C33.7405 98.8759 38.499 100.679 43.4197 100.632H115.363C118.72 100.785 122 99.5991 124.481 97.3361C126.963 95.073 128.443 91.9179 128.596 88.5647C128.749 85.2116 127.562 81.9352 125.296 79.4562C123.031 76.9773 119.872 75.4988 116.515 75.3462H116.529Z" fill="white"/>
<path opacity="0.4" d="M116.528 75.3462C116.821 73.9725 116.968 72.5718 116.968 71.1674C116.968 68.5616 116.454 65.9813 115.456 63.5738C114.457 61.1664 112.994 58.979 111.15 57.1364C109.305 55.2938 107.115 53.8322 104.705 52.835C102.295 51.8378 99.7122 51.3246 97.1035 51.3246C95.8723 51.3258 94.6437 51.4394 93.4331 51.6639C92.9268 51.5708 92.4139 51.6639 91.8877 51.604C90.0155 47.5404 87.0088 44.1029 83.2288 41.7044C79.4487 39.3059 75.0559 38.0484 70.5778 38.0827C67.511 38.0678 64.4714 38.6575 61.6331 39.8179C58.7948 40.9783 56.2136 42.6867 54.0373 44.8452C51.861 47.0037 50.1324 49.5699 48.9505 52.3967C47.7686 55.2236 47.1566 58.2556 47.1497 61.3192C47.1497 61.4922 47.1497 61.5787 47.1497 61.7517C42.3037 62.6066 37.9566 65.2501 34.9711 69.1576C31.9855 73.0652 30.5796 77.9511 31.0325 82.8458C31.4853 87.7406 33.7638 92.2864 37.4157 95.5812C41.0676 98.8759 45.8261 100.679 50.7468 100.632H115.362C118.719 100.785 121.999 99.5991 124.481 97.3361C126.962 95.073 128.443 91.9179 128.595 88.5647C128.748 85.2116 127.561 81.9352 125.296 79.4562C123.03 76.9773 119.872 75.4988 116.515 75.3462H116.528Z" fill="white"/>
<path d="M76.8262 88.8799L71.0508 94.6424H82.595L76.8262 88.8799Z" fill="#28BC77"/>
<path d="M47.9996 610.695L40.7109 588.452C44.3056 585.387 48.5392 583.162 53.1036 581.938C57.668 580.714 62.4482 580.522 67.096 581.377L73.17 602.2L47.9996 610.695Z" fill="#28BC77"/>
<path opacity="0.7" d="M47.9996 610.695L40.7109 588.452C44.3056 585.387 48.5392 583.162 53.1036 581.938C57.668 580.714 62.4482 580.522 67.096 581.377L73.17 602.2L47.9996 610.695Z" fill="white"/>
<g opacity="0.2">
<path d="M44.1855 593.706C45.0555 592.735 46.02 591.853 47.0646 591.073C48.1309 590.25 49.2601 589.511 50.4417 588.864C51.0855 588.524 51.7658 588.16 52.4825 587.845C53.1992 587.529 53.916 587.226 54.6813 586.995C55.4265 586.744 56.1849 586.533 56.9529 586.364L58.0827 586.109L59.2124 585.976C59.5769 585.976 59.9413 585.867 60.2936 585.843H61.3383C61.9786 585.806 62.6209 585.827 63.2576 585.903C63.8407 585.964 64.3753 586.012 64.849 586.097L66.0638 586.376L67.0964 586.643C67.0964 586.643 66.6955 586.643 66.0274 586.643L64.8126 586.583H63.2334C62.6197 586.598 62.0074 586.646 61.399 586.728C60.7175 586.79 60.0402 586.892 59.3703 587.032L58.3013 587.226L57.2323 587.505C56.5 587.678 55.7781 587.893 55.07 588.148C54.329 588.342 53.6366 588.67 52.932 588.925C52.2274 589.18 51.5714 589.507 50.9276 589.811C50.2838 590.114 49.7128 590.417 49.0811 590.745C48.4494 591.073 47.9514 591.352 47.4533 591.643C46.4572 592.225 45.6311 592.723 45.0238 593.111L44.1855 593.706Z" fill="black"/>
<path d="M44.8301 595.732C44.8301 595.732 45.1095 595.489 45.644 595.113C46.1785 594.737 46.9317 594.191 47.8913 593.633C48.9809 592.976 50.1041 592.377 51.2563 591.837C52.4711 591.23 53.9167 590.696 55.3137 590.187C56.0304 589.98 56.7471 589.738 57.4517 589.543C58.1563 589.349 58.873 589.179 59.5654 589.07C60.2578 588.961 60.926 588.803 61.5698 588.755C62.2136 588.706 62.7846 588.621 63.3798 588.609C64.2799 588.583 65.1807 588.616 66.0766 588.706L67.0971 588.828C67.0971 588.828 66.7205 588.888 66.0766 588.949C65.7608 588.949 65.3721 588.949 64.9347 589.07L63.4527 589.301C62.9061 589.386 62.3351 589.543 61.7156 589.653C61.096 589.762 60.5008 589.968 59.8084 590.114C59.1159 590.259 58.4721 590.502 57.7797 590.672C57.0872 590.842 56.407 591.121 55.7145 591.339C52.9448 592.262 50.2359 593.378 48.2072 594.24C47.1989 594.689 46.3364 595.028 45.7776 595.307L44.8301 595.732Z" fill="black"/>
<path d="M46.542 599.881C46.7796 599.644 47.0311 599.421 47.2952 599.214C47.7811 598.813 48.5099 598.243 49.3846 597.624C50.4105 596.919 51.4774 596.274 52.5795 595.695C53.8402 595.018 55.1427 594.423 56.4789 593.911C57.8237 593.405 59.2043 592.999 60.6092 592.698C61.259 592.562 61.9161 592.465 62.5771 592.406C63.2088 592.406 63.7919 592.273 64.3507 592.285L65.8449 592.346C66.2944 592.346 66.671 592.455 66.9868 592.491L67.9708 592.661C67.9708 592.661 67.6063 592.661 66.9746 592.722C66.6588 592.722 66.2822 592.722 65.8571 592.795L64.3993 592.989C63.8769 593.049 63.3181 593.195 62.7108 593.292C62.1034 593.389 61.496 593.608 60.8521 593.741C60.2083 593.875 59.5645 594.142 58.8963 594.324C58.2282 594.506 57.5722 594.785 56.9041 595.015C56.236 595.246 55.58 595.513 54.9361 595.792C54.2923 596.071 53.6485 596.314 53.0532 596.605C51.8384 597.151 50.7087 597.709 49.749 598.182C48.7893 598.656 47.9754 599.068 47.4288 599.396L46.542 599.881Z" fill="black"/>
<path d="M47.5625 602.711C48.4043 601.878 49.319 601.123 50.2958 600.454C51.2977 599.762 52.3447 599.137 53.4299 598.585C54.0373 598.294 54.6447 598.002 55.3128 597.735C55.981 597.468 56.6369 597.214 57.3294 597.019C58.0122 596.806 58.7055 596.628 59.4066 596.485C60.0829 596.331 60.7688 596.221 61.4596 596.158C62.104 596.074 62.7536 596.038 63.4033 596.049C63.9793 596.029 64.556 596.053 65.1283 596.121L66.586 596.316L67.6793 596.583C68.2746 596.74 68.6147 596.85 68.6147 596.85C68.6147 596.85 68.2503 596.85 67.6429 596.85H66.5374H65.1161C64.5599 596.848 64.0041 596.88 63.4519 596.947C62.8323 596.999 62.216 597.084 61.6054 597.201C60.9737 597.286 60.3906 597.468 59.6617 597.614C58.9329 597.76 58.3498 597.966 57.6938 598.16C56.3986 598.553 55.1253 599.015 53.8794 599.543C52.6646 600.053 51.5834 600.575 50.6481 601.036C49.7127 601.497 48.9352 601.91 48.4007 602.249L47.5625 602.711Z" fill="black"/>
<path d="M48.9707 606.497C49.1963 606.26 49.4356 606.038 49.6874 605.829C50.1612 605.429 50.8293 604.859 51.6918 604.24C52.6759 603.535 53.7023 602.89 54.7652 602.31C55.3362 601.983 55.98 601.667 56.5874 601.376C57.1948 601.085 57.8872 600.83 58.5432 600.539C59.1992 600.247 59.8916 600.077 60.5597 599.871C61.2279 599.665 61.9081 599.519 62.5763 599.398C63.2072 599.28 63.8438 599.195 64.4835 599.143C65.103 599.143 65.6983 599.046 66.2206 599.07L67.6784 599.167C68.1035 599.167 68.4801 599.313 68.7838 599.362L69.7313 599.58H68.7595C68.4558 599.58 68.0792 599.58 67.6662 599.58L66.2571 599.713C65.7469 599.774 65.1881 599.908 64.6171 599.98C64.0462 600.053 63.4023 600.272 62.8071 600.393C62.2118 600.514 61.5923 600.781 60.8999 600.951C60.2075 601.121 59.6122 601.388 58.9684 601.631C58.3245 601.873 57.6807 602.116 57.0612 602.395C56.4416 602.674 55.8464 602.917 55.239 603.208C54.0242 603.754 52.9916 604.312 52.0563 604.786C51.1209 605.259 50.3434 605.659 49.821 605.999L48.9707 606.497Z" fill="black"/>
</g>
<path d="M44.8388 610.852L59.805 599.518C59.9875 599.378 60.1979 599.278 60.4221 599.226C60.6462 599.174 60.879 599.17 61.1048 599.215L78.1968 602.455C78.5317 602.516 78.8392 602.68 79.0767 602.924C79.3141 603.168 79.4696 603.479 79.5217 603.815C79.5738 604.151 79.5198 604.495 79.3673 604.8C79.2148 605.104 78.9713 605.353 78.6706 605.512L64.5669 613.145C64.337 613.263 64.0841 613.329 63.8259 613.339L45.8471 613.8C45.5008 613.806 45.1618 613.701 44.8786 613.502C44.5954 613.303 44.3826 613.019 44.2707 612.692C44.1587 612.365 44.1534 612.01 44.2555 611.68C44.3575 611.349 44.5618 611.059 44.8388 610.852Z" fill="#28BC77"/>
<path d="M71.8203 617.576C71.8203 617.576 94.8283 561.962 98.8857 558.516C102.943 555.07 128.648 570.008 128.648 570.008L105.761 628.703L71.8203 617.576Z" fill="#28BC77"/>
<path opacity="0.2" d="M78.428 617.175C78.428 617.175 100.464 564.05 103.744 561.756C107.024 559.463 125.805 569.243 125.805 569.243C125.805 569.243 106.234 557.303 100.233 559.329C94.2323 561.356 73.7754 615.962 73.7754 615.962L78.428 617.175Z" fill="black"/>
<path d="M124.798 612.114H27.0811V669.754H124.798V612.114Z" fill="#263238"/>
<path opacity="0.2" d="M124.798 612.114H27.0811V669.754H124.798V612.114Z" fill="white"/>
<path opacity="0.4" d="M124.797 612.114H64.1309V669.754H124.797V612.114Z" fill="white"/>
<path d="M64.1309 612.721L87.1389 594.216L138.463 597.711L124.797 612.721H64.1309Z" fill="#263238"/>
<path d="M64.1308 612.721L46.7472 592.699L10 596.643L27.0799 612.115L64.1308 612.721Z" fill="#263238"/>
<path opacity="0.1" d="M64.1308 612.721L46.7472 592.699L10 596.643L27.0799 612.115L64.1308 612.721Z" fill="white"/>
<path opacity="0.4" d="M64.1309 612.721L87.1389 594.216L138.463 597.711L124.797 612.721H64.1309Z" fill="white"/>
<path d="M106.296 638.642C103.226 638.642 100.224 639.551 97.6712 641.255C95.1182 642.959 93.1283 645.381 91.9533 648.215C90.7782 651.049 90.4708 654.167 91.0698 657.175C91.6688 660.183 93.1474 662.947 95.3186 665.116C97.4898 667.284 100.256 668.761 103.268 669.36C106.279 669.958 109.401 669.651 112.238 668.477C115.074 667.304 117.499 665.316 119.205 662.766C120.911 660.215 121.821 657.217 121.821 654.15C121.821 650.037 120.186 646.092 117.274 643.184C114.363 640.276 110.414 638.642 106.296 638.642ZM106.296 660.326C105.071 660.326 103.872 659.963 102.853 659.282C101.834 658.602 101.04 657.635 100.571 656.503C100.103 655.372 99.9809 654.127 100.221 652.926C100.461 651.725 101.052 650.622 101.92 649.757C102.788 648.892 103.893 648.304 105.095 648.066C106.298 647.829 107.544 647.953 108.676 648.423C109.808 648.894 110.774 649.689 111.454 650.708C112.133 651.727 112.494 652.925 112.492 654.15C112.492 654.962 112.331 655.766 112.02 656.516C111.709 657.266 111.252 657.948 110.676 658.522C110.101 659.095 109.418 659.55 108.666 659.86C107.915 660.169 107.109 660.328 106.296 660.326Z" fill="#28BC77"/>
<path opacity="0.7" d="M120.291 647.416C120.011 646.842 119.695 646.287 119.344 645.753C118.889 645.031 118.369 644.353 117.789 643.727C115.136 640.789 111.45 638.989 107.5 638.703C107.096 638.658 106.691 638.638 106.285 638.642C103.927 638.646 101.601 639.186 99.4834 640.221C97.3655 641.256 95.5112 642.758 94.0608 644.615C92.6105 646.472 91.6023 648.634 91.1124 650.938C90.6226 653.242 90.6641 655.627 91.2337 657.912C91.3776 658.507 91.5644 659.091 91.7925 659.659C92.1176 660.506 92.5245 661.319 93.0073 662.086C94.2667 664.186 96.0069 665.958 98.0849 667.255C100.163 668.552 102.519 669.339 104.961 669.549C105.41 669.549 105.86 669.61 106.309 669.61C108.935 669.607 111.516 668.94 113.814 667.671C116.111 666.402 118.049 664.572 119.447 662.351C120.844 660.131 121.656 657.594 121.805 654.976C121.955 652.357 121.439 649.744 120.303 647.379L120.291 647.416ZM106.297 660.327C106.103 660.339 105.908 660.339 105.714 660.327C104.591 660.224 103.519 659.816 102.613 659.146C101.707 658.476 101.002 657.571 100.575 656.529C100.431 656.175 100.317 655.81 100.235 655.437C100.194 655.204 100.166 654.969 100.15 654.733C100.138 654.551 100.138 654.369 100.15 654.187C100.149 653.375 100.307 652.57 100.617 651.819C100.927 651.069 101.383 650.386 101.957 649.811C102.531 649.237 103.213 648.781 103.964 648.469C104.715 648.158 105.52 647.998 106.333 647.998C106.479 647.986 106.625 647.986 106.771 647.998C108.046 648.078 109.265 648.553 110.257 649.357C110.502 649.561 110.729 649.784 110.937 650.025C111.116 650.217 111.279 650.424 111.423 650.643C112.149 651.673 112.535 652.903 112.529 654.162C112.527 654.977 112.365 655.783 112.05 656.534C111.736 657.285 111.276 657.966 110.696 658.539C110.117 659.112 109.43 659.565 108.675 659.872C107.92 660.179 107.112 660.333 106.297 660.327Z" fill="white"/>
<path opacity="0.2" d="M105.714 660.289L104.949 669.585C102.507 669.374 100.151 668.588 98.0727 667.29C95.9947 665.993 94.2545 664.221 92.9951 662.122L100.575 656.491C101.002 657.533 101.707 658.439 102.613 659.108C103.519 659.778 104.591 660.187 105.714 660.289Z" fill="white"/>
<path opacity="0.2" d="M117.789 643.726L110.221 649.344C109.228 648.54 108.01 648.065 106.734 647.985L107.5 638.702C111.45 638.989 115.136 640.788 117.789 643.726Z" fill="white"/>
<path opacity="0.2" d="M100.234 655.397L91.8029 659.656C91.5748 659.088 91.3881 658.504 91.2441 657.909L100.149 654.693C100.164 654.929 100.193 655.164 100.234 655.397Z" fill="white"/>
<path opacity="0.2" d="M120.291 647.414L111.386 650.63C111.242 650.411 111.079 650.204 110.9 650.011L119.343 645.752C119.694 646.285 120.01 646.841 120.291 647.414Z" fill="white"/>
<path d="M117.631 642.95C109.128 642.95 104.475 648.933 107.391 656.298C110.306 663.664 119.599 669.646 128.163 669.646C136.728 669.646 141.332 663.676 138.416 656.298C135.501 648.92 126.208 642.95 117.631 642.95ZM125.005 661.625C123.266 661.587 121.572 661.069 120.11 660.129C118.648 659.189 117.475 657.863 116.72 656.298C115.505 653.362 117.388 650.971 120.802 650.971C122.54 651.012 124.232 651.531 125.694 652.471C127.156 653.411 128.33 654.735 129.087 656.298C130.265 659.235 128.418 661.625 125.005 661.625Z" fill="#28BC77"/>
<path opacity="0.1" d="M134.599 650.498C134.126 650.013 133.627 649.527 133.093 649.066C132.383 648.439 131.632 647.86 130.846 647.331C127.31 644.84 123.169 643.343 118.856 642.999C118.431 642.999 118.03 642.999 117.641 642.999C109.137 642.999 104.485 648.969 107.4 656.347C107.851 657.491 108.434 658.578 109.137 659.587C109.509 660.115 109.914 660.618 110.352 661.092C110.974 661.849 111.652 662.559 112.381 663.215C116.373 666.885 121.46 669.144 126.861 669.647C127.323 669.647 127.784 669.647 128.234 669.647C136.81 669.647 141.402 663.664 138.499 656.299C137.582 654.134 136.259 652.165 134.599 650.498ZM124.99 661.626H124.395C121.919 661.382 119.625 660.217 117.969 658.361C117.709 658.065 117.473 657.749 117.264 657.415C117.143 657.219 117.034 657.017 116.936 656.808C116.854 656.655 116.781 656.497 116.718 656.335C115.503 653.386 117.386 651.008 120.799 651.008C120.945 650.996 121.091 650.996 121.237 651.008C122.627 651.113 123.976 651.528 125.185 652.221C125.5 652.397 125.804 652.591 126.096 652.804C126.34 652.964 126.571 653.143 126.788 653.338C127.801 654.134 128.595 655.174 129.096 656.359C130.263 659.235 128.416 661.626 124.99 661.626Z" fill="white"/>
<path opacity="0.2" d="M124.395 661.588L126.825 669.597C121.424 669.094 116.337 666.835 112.345 663.165L118.006 658.312C119.651 660.163 121.93 661.332 124.395 661.588Z" fill="white"/>
<path opacity="0.2" d="M130.847 647.331L125.186 652.185C123.977 651.491 122.628 651.076 121.238 650.971L118.809 642.975C123.141 643.318 127.3 644.823 130.847 647.331Z" fill="white"/>
<path opacity="0.2" d="M117.266 657.38L110.281 661.021C109.843 660.546 109.438 660.044 109.066 659.516L116.902 656.773C117.011 656.983 117.133 657.185 117.266 657.38Z" fill="white"/>
<path opacity="0.2" d="M134.601 650.497L126.79 653.276C126.573 653.081 126.341 652.902 126.098 652.742L133.095 649.102C133.629 649.526 134.127 650.012 134.601 650.497Z" fill="white"/>
<path d="M288.898 575.187L289.309 592.942L291.182 673.255H297.357L299.218 592.942L299.629 575.187H288.898Z" fill="#28BC77"/>
<path opacity="0.4" d="M288.898 575.187L289.309 592.942L291.182 673.255H297.357L299.218 592.942L299.629 575.187H288.898Z" fill="white"/>
<path opacity="0.2" d="M288.898 575.187L289.309 593.432H299.218L299.629 575.187H288.898Z" fill="black"/>
<path d="M255.36 672.973L261.068 576.444H270.395L262.404 672.973H255.36Z" fill="#28BC77"/>
<path opacity="0.5" d="M262.427 672.97H255.372L260.555 585.108L261.068 576.327H270.395L269.676 585.108L262.427 672.97Z" fill="white"/>
<path opacity="0.2" d="M270.394 576.327L269.675 585.45H260.554L261.067 576.327H270.394Z" fill="black"/>
<path d="M326.137 672.973L318.146 576.444H327.473L333.181 672.973H326.137Z" fill="#28BC77"/>
<path opacity="0.5" d="M326.115 672.97L318.866 585.108L318.146 576.327H327.473L327.987 585.108L333.17 672.97H326.115Z" fill="white"/>
<path opacity="0.2" d="M318.146 576.327L318.866 585.45H327.987L327.473 576.327H318.146Z" fill="black"/>
<path d="M332.463 579.785H256.069V572.179C256.069 570.667 256.67 569.216 257.741 568.147C258.811 567.078 260.263 566.477 261.777 566.477H326.755C328.269 566.477 329.721 567.078 330.791 568.147C331.862 569.216 332.463 570.667 332.463 572.179V579.808V579.785Z" fill="#28BC77"/>
<path d="M254.709 579.77H333.831C335.099 579.77 336.126 578.743 336.126 577.477V575.402C336.126 574.136 335.099 573.11 333.831 573.11H254.709C253.442 573.11 252.415 574.136 252.415 575.402V577.477C252.415 578.743 253.442 579.77 254.709 579.77Z" fill="#28BC77"/>
<path opacity="0.6" d="M254.709 579.77H333.831C335.099 579.77 336.126 578.743 336.126 577.477V575.402C336.126 574.136 335.099 573.11 333.831 573.11H254.709C253.442 573.11 252.415 574.136 252.415 575.402V577.477C252.415 578.743 253.442 579.77 254.709 579.77Z" fill="white"/>
<path d="M266.858 458.301C266.858 458.301 266.538 459.168 265.956 460.582C265.374 461.996 264.483 464.151 263.399 466.5C260.773 472.202 256.96 479.455 252.976 483.366C251.976 484.418 250.772 485.256 249.438 485.829C245.191 487.46 234.54 487.756 225.031 487.665C215.522 487.574 207.394 487.095 207.394 487.095V479.899L238.661 471.575C238.661 471.575 255.145 441.858 264.917 437.456L266.858 458.301Z" fill="#263238"/>
<path opacity="0.2" d="M265.955 460.593C265.361 462.076 264.482 464.163 263.398 466.512C260.772 472.213 256.96 479.466 252.975 483.377C248.923 468.462 263.912 454.265 263.912 454.265L265.955 460.593Z" fill="black"/>
<path d="M261.913 665.022L252.814 663.779L251.559 642.181L260.634 643.435L261.913 665.022Z" fill="#EBB376"/>
<path opacity="0.2" d="M260.634 643.433L251.559 642.19L252.278 654.529L261.353 655.327L260.634 643.433Z" fill="black"/>
<path d="M261.548 538.078L263.762 524.188L314.699 521.144C314.699 521.144 320.122 550.04 315.955 557.737C308.523 571.478 268.454 564.579 256.719 565.89C263.774 594.57 263.089 650.446 263.089 650.446L246.342 651.723C246.342 651.723 233.465 591.434 230.851 562.777C229.081 543.483 245.132 543.962 261.548 538.078Z" fill="#28BC77"/>
<path d="M265.052 651.28L244.926 652.591L243.202 643.982L265.314 642.967L265.052 651.28Z" fill="#28BC77"/>
<path d="M240.932 656.959L231.777 657.631L226.046 636.775L235.19 636.113L240.932 656.959Z" fill="#EBB376"/>
<path d="M230.544 657.941H230.385C230.385 657.804 229.917 655.239 228.809 654.634C228.667 654.564 228.511 654.527 228.353 654.527C228.194 654.527 228.038 654.564 227.896 654.634C227.722 654.688 227.571 654.8 227.469 654.952C227.367 655.103 227.321 655.285 227.337 655.467C227.558 656.223 228.034 656.879 228.684 657.325C227.851 657.041 226.943 657.065 226.127 657.394C226.017 657.477 225.93 657.586 225.874 657.712C225.818 657.837 225.795 657.975 225.807 658.112C225.792 658.328 225.839 658.543 225.942 658.733C226.046 658.922 226.2 659.079 226.389 659.184C226.962 659.407 227.597 659.407 228.17 659.184C228.964 658.949 229.729 658.627 230.453 658.226H230.533C230.533 658.226 230.533 658.226 230.533 658.158C230.558 658.128 230.572 658.09 230.574 658.051C230.576 658.012 230.566 657.974 230.544 657.941ZM227.793 655.387C227.793 655.261 227.793 655.102 228.101 654.988H228.204C228.285 654.96 228.371 654.951 228.456 654.96C228.541 654.97 228.623 654.999 228.695 655.045C229.357 655.398 229.837 656.79 230.031 657.622L229.825 657.565C228.923 657.029 227.873 656.003 227.793 655.387ZM226.595 658.739C226.482 658.663 226.39 658.559 226.328 658.437C226.266 658.315 226.236 658.18 226.241 658.044C226.235 657.977 226.245 657.91 226.271 657.849C226.297 657.787 226.337 657.733 226.389 657.69C226.914 657.303 228.581 657.633 229.814 657.998C228.296 658.751 227.131 659.025 226.595 658.739Z" fill="#28BC77"/>
<path opacity="0.2" d="M235.19 636.113L226.046 636.786L229.322 648.703L238.363 647.596L235.19 636.113Z" fill="black"/>
<path d="M222.941 647.229L239.06 642.463C239.06 642.463 229.436 588.206 219.653 569.39C220.384 569.151 221.354 568.843 222.553 568.489C224.71 567.839 227.576 567.03 230.943 566.095C254.368 559.606 301.846 547.439 301.846 547.439L280.156 527.221C280.156 527.221 193.762 540.38 191.97 563.118C191.137 574.043 222.941 647.229 222.941 647.229Z" fill="#28BC77"/>
<path d="M241.136 642.851L221.73 648.336L218.248 640.274L239.664 634.675L241.136 642.851Z" fill="#28BC77"/>
<path opacity="0.2" d="M222.575 568.526C224.732 567.876 227.598 567.066 230.965 566.131C230.292 560.612 230.28 554.283 232.94 551.056C238.226 544.624 251.822 540.85 259.561 539.482C266.034 538.341 287.781 536.061 287.781 536.061C287.781 536.061 259.561 533.358 230.703 541.762C216.456 545.936 219.23 559.859 222.575 568.526Z" fill="black"/>
<path d="M317.576 535.661C321 533.05 317.713 508.761 319.459 484.871C322.119 448.494 319.459 436.806 316.777 435.677C311.823 434.819 306.813 434.323 301.788 434.195C294.437 433.932 287.077 434.092 279.744 434.674C274.726 435.288 269.764 436.295 264.904 437.684C264.904 437.684 252.894 475.885 260.566 530.906L317.576 535.661Z" fill="#263238"/>
<path opacity="0.8" d="M320.408 466.147C320.26 471.495 319.94 477.698 319.415 484.859C317.669 508.749 320.933 533.039 317.532 535.65L260.51 530.895C257.106 507.012 257.086 482.77 260.453 458.883C265.088 451.653 274.083 443.408 278.216 439.794C279.588 441.295 281.449 442.261 283.467 442.519C287.908 443.386 292.976 441.379 297.166 438.824C300.477 442.12 306.755 448.791 309.506 454.413C309.794 454.995 310.049 455.593 310.271 456.203C312.018 461.084 317.349 455.063 320.066 447.217C320.532 453.516 320.646 459.835 320.408 466.147Z" fill="white"/>
<path d="M299.083 409.506C297.839 416.622 296.732 429.621 301.789 434.251C299.736 436.453 297.266 438.228 294.523 439.473C291.78 440.718 288.818 441.408 285.807 441.504C276.674 441.903 279.756 434.662 279.756 434.662C287.633 432.609 287.291 426.748 285.795 421.274L299.083 409.506Z" fill="#EBB376"/>
<path opacity="0.2" d="M293.658 414.331L285.793 421.333C286.162 422.604 286.418 423.905 286.558 425.221C289.572 424.731 293.647 421.321 293.91 418.151C294.061 416.873 293.975 415.578 293.658 414.331Z" fill="black"/>
<path d="M281.811 391.09C285.75 393.758 283.957 398.274 275.053 405.356C271.446 400.714 270.841 391.592 273.717 389.311C276.594 387.03 278.386 388.775 281.811 391.09Z" fill="#263238"/>
<path d="M298.718 398.431C298.295 408.044 298.524 413.677 293.763 418.695C286.594 426.233 274.653 422.036 272.199 412.492C270.007 403.916 271.058 389.685 280.407 385.659C282.461 384.77 284.709 384.421 286.936 384.645C289.164 384.869 291.296 385.659 293.132 386.939C294.967 388.219 296.444 389.947 297.422 391.959C298.4 393.971 298.846 396.199 298.718 398.431Z" fill="#EBB376"/>
<path d="M284.437 401.286C284.437 402.073 284.049 402.711 283.535 402.723C283.021 402.734 282.61 402.107 282.599 401.32C282.587 400.533 282.976 399.906 283.489 399.895C284.003 399.883 284.368 400.522 284.437 401.286Z" fill="#263238"/>
<path d="M275.543 401.453C275.543 402.229 275.155 402.867 274.641 402.879C274.127 402.89 273.705 402.274 273.694 401.476C273.682 400.678 274.082 400.051 274.595 400.051C275.109 400.051 275.532 400.712 275.543 401.453Z" fill="#263238"/>
<path d="M278.456 401.773C277.566 404.176 276.348 406.444 274.837 408.513C275.379 408.881 275.993 409.129 276.639 409.239C277.286 409.35 277.948 409.32 278.581 409.151L278.456 401.773Z" fill="#D58745"/>
<path d="M286.822 398.431C286.922 398.444 287.024 398.42 287.107 398.363C287.155 398.327 287.196 398.282 287.226 398.23C287.257 398.179 287.277 398.122 287.286 398.062C287.294 398.003 287.291 397.943 287.276 397.885C287.261 397.827 287.235 397.772 287.199 397.724C286.762 397.138 286.191 396.666 285.533 396.346C284.876 396.027 284.151 395.87 283.42 395.888C283.362 395.891 283.305 395.906 283.253 395.931C283.201 395.956 283.154 395.991 283.116 396.035C283.077 396.079 283.048 396.13 283.03 396.185C283.012 396.24 283.005 396.298 283.009 396.356C283.024 396.474 283.082 396.582 283.173 396.658C283.265 396.734 283.381 396.773 283.5 396.766C284.077 396.76 284.647 396.891 285.164 397.149C285.68 397.407 286.127 397.784 286.468 398.249C286.512 398.302 286.565 398.345 286.626 398.376C286.687 398.408 286.754 398.426 286.822 398.431Z" fill="#263238"/>
<path d="M271.447 398.523C271.535 398.524 271.621 398.499 271.696 398.453C271.771 398.407 271.831 398.34 271.869 398.261C272.094 397.731 272.442 397.261 272.885 396.892C273.328 396.523 273.852 396.265 274.415 396.14C274.535 396.12 274.643 396.055 274.716 395.957C274.788 395.859 274.82 395.736 274.803 395.616C274.786 395.496 274.723 395.388 274.626 395.316C274.53 395.243 274.409 395.212 274.289 395.228C273.575 395.377 272.907 395.695 272.341 396.155C271.774 396.616 271.327 397.205 271.036 397.873C270.985 397.982 270.979 398.107 271.02 398.22C271.061 398.333 271.144 398.426 271.253 398.478C271.312 398.511 271.379 398.526 271.447 398.523Z" fill="#263238"/>
<path d="M294.767 389.973C290.303 391.592 290.943 396.416 297.838 405.447C302.495 401.787 305.315 393.109 303.066 390.201C300.817 387.293 298.717 388.57 294.767 389.973Z" fill="#263238"/>
<path d="M303.457 406.017C303.147 407.175 302.611 408.26 301.88 409.211C301.15 410.162 300.239 410.96 299.199 411.559C296.402 413.133 294.245 410.818 294.37 407.796C294.496 405.059 296.094 400.954 299.211 400.612C302.327 400.27 304.211 403.143 303.457 406.017Z" fill="#EBB376"/>
<path d="M285.795 410.737C285.119 411.77 284.171 412.597 283.055 413.126C281.939 413.655 280.699 413.866 279.471 413.736" stroke="#263238" stroke-width="0.526291" stroke-linecap="round" stroke-linejoin="round"/>
<path d="M285.019 388.444C285.019 388.444 286.457 398.068 295.738 398.707C305.019 399.346 307.006 393.587 307.006 393.587C306.249 393.697 305.487 393.758 304.722 393.769C304.722 393.769 307.439 389.105 304.722 384.647C302.005 380.188 292.759 375.421 285.898 377.805C283.763 377.108 281.507 376.86 279.271 377.075C277.035 377.291 274.869 377.967 272.907 379.059C266.48 382.788 267.621 390.919 267.621 390.919C267.621 390.919 267.336 385.981 270.338 384.601C270.338 384.601 266.628 394.761 272.188 397.475C272.176 397.441 272.724 387.441 285.019 388.444Z" fill="#263238"/>
<path d="M269.23 479.396C269.23 479.396 236.124 478.643 234.252 478.461C232.38 478.279 224.537 473.9 222.837 473.66C221.136 473.421 216.695 480.502 216.136 482.144C215.576 483.786 228.693 488.234 229.96 488.04C231.427 487.649 232.853 487.119 234.218 486.455L268.008 490.799L269.23 479.396Z" fill="#EBB376"/>
<path d="M173.146 486.238V489.26C173.146 490.161 174.698 490.8 175.6 490.8H246.137C247.051 490.8 248.489 490.161 248.489 489.26V486.238H173.146Z" fill="#263238"/>
<path opacity="0.6" d="M173.146 486.238V489.26C173.146 490.161 174.698 490.8 175.6 490.8H246.137C247.051 490.8 248.489 490.161 248.489 489.26V486.238H173.146Z" fill="white"/>
<path opacity="0.2" d="M173.146 486.238V489.26C173.146 490.161 174.698 490.8 175.6 490.8H222.119C223.032 490.8 224.516 490.161 224.516 489.26V486.238H173.146Z" fill="black"/>
<path d="M161.832 449.189L170.234 487.379C170.383 488.002 170.729 488.56 171.22 488.971C171.712 489.382 172.323 489.623 172.963 489.66H218.808C219.102 489.634 219.387 489.542 219.641 489.392C219.896 489.242 220.114 489.037 220.279 488.792C220.444 488.548 220.552 488.269 220.596 487.978C220.64 487.686 220.618 487.388 220.532 487.105L212.141 449.338C211.97 448.76 211.606 448.26 211.109 447.919C210.612 447.579 210.013 447.419 209.413 447.467H163.568C162.335 447.467 161.558 447.946 161.832 449.189Z" fill="#263238"/>
<path opacity="0.6" d="M161.832 449.189L170.234 487.379C170.383 488.002 170.729 488.56 171.22 488.971C171.712 489.382 172.323 489.623 172.963 489.66H218.808C219.102 489.634 219.387 489.542 219.641 489.392C219.896 489.242 220.114 489.037 220.279 488.792C220.444 488.548 220.552 488.269 220.596 487.978C220.64 487.686 220.618 487.388 220.532 487.105L212.141 449.338C211.97 448.76 211.606 448.26 211.109 447.919C210.612 447.579 210.013 447.419 209.413 447.467H163.568C162.335 447.467 161.558 447.946 161.832 449.189Z" fill="white"/>
<path opacity="0.4" d="M161.832 449.189L170.234 487.379C170.383 488.002 170.729 488.56 171.22 488.971C171.712 489.382 172.323 489.623 172.963 489.66H217.267C217.561 489.633 217.846 489.542 218.101 489.392C218.356 489.242 218.574 489.037 218.74 488.793C218.906 488.548 219.015 488.27 219.061 487.979C219.106 487.687 219.086 487.389 219.002 487.105L210.612 449.338C210.441 448.76 210.076 448.26 209.579 447.919C209.083 447.579 208.484 447.419 207.883 447.467H163.568C162.335 447.467 161.558 447.946 161.832 449.189Z" fill="white"/>
<path opacity="0.2" d="M188.819 473.695C186.684 473.695 184.493 471.414 183.933 468.586C183.374 465.758 184.664 463.432 186.844 463.432C187.235 463.44 187.622 463.517 187.986 463.66C188.184 464.668 188.616 465.616 189.249 466.426C189.882 467.236 190.696 467.886 191.627 468.324C191.652 468.398 191.671 468.474 191.684 468.552C192.255 471.414 190.965 473.695 188.819 473.695Z" fill="black"/>
<path opacity="0.2" d="M320.407 466.145C315.487 474.128 308.603 482.623 301.742 482.224C294.562 481.802 301.799 467.16 309.516 454.411C309.804 454.994 310.059 455.591 310.281 456.202C312.028 461.082 317.359 455.061 320.076 447.216C320.538 453.515 320.649 459.834 320.407 466.145Z" fill="black"/>
<path d="M316.778 435.676C333.707 441.765 303.992 487.561 294.757 492.282C285.522 497.003 261.252 491.564 261.252 491.564L262.759 477.412C262.759 477.412 281.971 478.712 285.796 477.743C289.62 476.773 298.707 457.217 303.935 448.037C306.837 442.692 311.323 438.374 316.778 435.676Z" fill="#263238"/>
<path opacity="0.2" d="M265.052 651.28L244.926 652.591L243.202 643.982L265.314 642.967L265.052 651.28Z" fill="white"/>
<path opacity="0.2" d="M241.136 642.851L221.73 648.336L218.248 640.274L239.664 634.675L241.136 642.851Z" fill="white"/>
<path d="M230.886 656.694L240.794 653.934C240.958 653.883 241.135 653.898 241.288 653.974C241.442 654.051 241.559 654.184 241.616 654.345L244.299 662.054C244.411 662.469 244.354 662.913 244.14 663.287C243.926 663.66 243.573 663.935 243.157 664.049C239.676 664.95 237.975 665.19 233.603 666.398C230.92 667.14 225.691 668.85 221.867 669.283C218.043 669.717 217.723 665.931 219.299 665.418C223.043 664.163 227.529 660.263 229.47 657.618C229.825 657.16 230.324 656.835 230.886 656.694Z" fill="#263238"/>
<path d="M251.914 663.789C251.914 663.63 251.754 661.041 250.772 660.22C250.626 660.112 250.46 660.035 250.283 659.994C250.106 659.952 249.923 659.948 249.745 659.98C249.559 659.998 249.384 660.073 249.245 660.196C249.105 660.319 249.009 660.483 248.968 660.665C249.009 661.449 249.329 662.193 249.87 662.763C249.106 662.315 248.209 662.15 247.336 662.295C247.211 662.355 247.104 662.445 247.022 662.556C246.941 662.668 246.888 662.797 246.868 662.934C246.814 663.137 246.818 663.351 246.878 663.552C246.939 663.754 247.054 663.934 247.21 664.074C247.725 664.402 248.345 664.524 248.945 664.416C249.76 664.349 250.565 664.189 251.343 663.937C251.355 663.943 251.369 663.947 251.383 663.947C251.397 663.947 251.41 663.943 251.423 663.937V663.869C251.423 663.869 251.64 663.869 251.651 663.789C251.662 663.709 251.845 663.789 251.845 663.789H251.914ZM249.391 660.71C249.391 660.585 249.471 660.425 249.767 660.368H249.87C249.956 660.36 250.042 660.372 250.123 660.401C250.204 660.431 250.278 660.478 250.338 660.539C250.92 661.018 251.08 662.466 251.114 663.333L250.932 663.23C250.137 662.598 249.591 661.705 249.391 660.71ZM247.518 663.732C247.43 663.633 247.369 663.513 247.339 663.383C247.309 663.254 247.312 663.119 247.347 662.991C247.354 662.924 247.379 662.86 247.419 662.806C247.459 662.752 247.513 662.709 247.576 662.683C248.158 662.409 249.722 663.082 250.829 663.687C249.185 664.131 247.975 664.131 247.518 663.778V663.732Z" fill="#28BC77"/>
<path d="M252.129 662.683L262.403 662.044C262.488 662.033 262.574 662.039 262.657 662.062C262.739 662.085 262.816 662.124 262.884 662.177C262.951 662.231 263.006 662.297 263.047 662.372C263.088 662.447 263.114 662.53 263.122 662.615L264.127 670.711C264.142 670.922 264.116 671.133 264.049 671.334C263.982 671.534 263.876 671.719 263.737 671.878C263.598 672.037 263.428 672.167 263.239 672.26C263.049 672.354 262.842 672.408 262.631 672.421C259.047 672.593 257.323 672.49 252.802 672.741C250.028 672.9 244.56 673.493 240.725 673.117C236.889 672.741 237.368 668.978 239.024 668.795C242.939 668.35 248.156 665.477 250.588 663.287C251.02 662.921 251.562 662.708 252.129 662.683Z" fill="#263238"/>
<path d="M206.375 673.258H213.361L214.514 498.502H205.233L206.375 673.258Z" fill="#28BC77"/>
<path opacity="0.4" d="M205.224 498.784L205.406 526.985L206.365 673.255H213.363L214.322 526.985L214.505 498.784H205.224Z" fill="white"/>
<path opacity="0.2" d="M205.224 498.784L205.406 527.292H214.322L214.505 498.784H205.224Z" fill="black"/>
<path d="M132.129 673.258H139.115L151.684 498.502H142.403L132.129 673.258Z" fill="#28BC77"/>
<path opacity="0.5" d="M132.118 673.255H139.116L151.068 507.188L151.685 498.784H142.404L141.901 507.188L132.118 673.255Z" fill="white"/>
<path opacity="0.2" d="M141.901 506.767H151.068L151.685 498.784H142.404L141.901 506.767Z" fill="black"/>
<path d="M280.623 673.258H287.61L277.336 498.502H268.055L280.623 673.258Z" fill="#28BC77"/>
<path opacity="0.5" d="M268.055 498.786L268.671 507.19L280.623 673.257H287.61L277.838 507.19L277.336 498.786H268.055Z" fill="white"/>
<path opacity="0.2" d="M277.336 498.786H268.055L268.671 506.768H277.838L277.336 498.786Z" fill="black"/>
<path d="M282.222 502.878H137.516C137.193 502.878 136.872 502.814 136.573 502.69C136.274 502.567 136.002 502.385 135.773 502.157C135.544 501.928 135.362 501.656 135.238 501.357C135.114 501.059 135.051 500.738 135.051 500.415V494.132H284.688V500.415C284.688 501.068 284.428 501.695 283.965 502.157C283.503 502.618 282.876 502.878 282.222 502.878Z" fill="#28BC77"/>
<path opacity="0.6" d="M282.222 502.878H137.516C137.193 502.878 136.872 502.814 136.573 502.69C136.274 502.567 136.002 502.385 135.773 502.157C135.544 501.928 135.362 501.656 135.238 501.357C135.114 501.059 135.051 500.738 135.051 500.415V494.132H284.688V500.415C284.688 501.068 284.428 501.695 283.965 502.157C283.503 502.618 282.876 502.878 282.222 502.878Z" fill="white"/>
<path opacity="0.2" d="M135.051 498.502H284.688V494.123H135.051V498.502Z" fill="black"/>
<path d="M130.713 495.275H289.026C289.681 495.272 290.308 495.009 290.77 494.546C291.232 494.082 291.491 493.454 291.491 492.8C291.491 492.147 291.232 491.52 290.769 491.058C290.307 490.596 289.68 490.337 289.026 490.337H130.713C130.059 490.337 129.432 490.596 128.969 491.058C128.507 491.52 128.247 492.147 128.247 492.8C128.247 493.454 128.506 494.082 128.969 494.546C129.431 495.009 130.058 495.272 130.713 495.275Z" fill="#28BC77"/>
<path opacity="0.6" d="M130.713 495.275H289.026C289.681 495.272 290.308 495.009 290.77 494.546C291.232 494.082 291.491 493.454 291.491 492.8C291.491 492.147 291.232 491.52 290.769 491.058C290.307 490.596 289.68 490.337 289.026 490.337H130.713C130.059 490.337 129.432 490.596 128.969 491.058C128.507 491.52 128.247 492.147 128.247 492.8C128.247 493.454 128.506 494.082 128.969 494.546C129.431 495.009 130.058 495.272 130.713 495.275Z" fill="white"/>
</svg>
