<svg width="451" height="291" viewBox="0 0 451 291" fill="none" xmlns="http://www.w3.org/2000/svg">
<g clip-path="url(#clip0_3320_4380)">
<path d="M265.967 2.69664C266.107 2.20393 266.434 1.78612 266.877 1.53288C267.32 1.27964 267.844 1.21112 268.336 1.34194C268.829 1.47276 269.251 1.79254 269.512 2.23273C269.773 2.67292 269.852 3.19845 269.732 3.69669L168.794 382.569L165.719 381.744L265.967 2.69664Z" fill="#7A4017"/>
<path d="M263.367 10.298C263.367 10.298 312.123 40.4549 348.796 41.716C385.469 42.9772 395.219 56.3898 418.087 79.8783C418.087 79.8783 370.115 83.6532 366.068 94.5677C366.068 94.5677 415.85 130.63 424.107 152.243C424.107 152.243 388.974 141.544 381.7 138.865C357.542 129.875 311.643 136.436 293.801 130.895C274.047 124.74 254.757 105.818 238.61 103.477L263.367 10.298Z" fill="black"/>
<path d="M279.371 42.6361C279.454 42.9283 279.56 43.2133 279.689 43.4884L280.725 45.8887C281.166 46.9266 281.745 48.2005 282.471 49.6334C283.196 51.0663 283.971 52.7392 284.978 54.4908C285.986 56.2423 287.016 58.2223 288.29 60.2422C289.564 62.2621 290.92 64.4057 292.394 66.646C295.73 71.4216 299.335 76.0033 303.19 80.3691C307.064 84.6983 311.188 88.7974 315.539 92.6456C317.589 94.3755 319.51 96.0475 321.407 97.4784C323.304 98.9094 325.07 100.257 326.675 101.434C328.281 102.61 329.865 103.596 331.216 104.478C332.567 105.361 333.745 106.085 334.725 106.652L336.985 107.952C337.243 108.114 337.513 108.255 337.794 108.374C337.57 108.169 337.323 107.992 337.057 107.847L334.855 106.43C333.899 105.836 332.733 105.098 331.419 104.176C330.105 103.254 328.559 102.279 326.951 101.051C325.343 99.8241 323.543 98.5545 321.68 97.0455C319.818 95.5365 317.887 93.9159 315.863 92.2103C311.545 88.3517 307.444 84.2565 303.579 79.9437C299.733 75.6018 296.13 71.0502 292.787 66.3096C291.288 64.096 289.845 62.0072 288.622 59.9723C287.398 57.9373 286.257 56.0516 285.262 54.2867C284.267 52.5219 283.431 50.9028 282.68 49.4837C281.93 48.0647 281.289 46.8192 280.833 45.7436L279.685 43.3994C279.603 43.1362 279.498 42.8808 279.371 42.6361Z" fill="#263238"/>
<path d="M254.762 93.0601C254.88 92.8363 254.963 92.5963 255.01 92.3479L255.594 90.3077C256.096 88.4242 256.784 85.8568 257.638 82.7211C259.324 76.2721 261.619 67.4506 264.086 57.6527C266.553 47.8547 268.716 38.9499 270.211 32.4842C270.959 29.264 271.529 26.6382 271.892 24.761C272.067 23.8481 272.189 23.1417 272.243 22.6549C272.278 22.4692 272.296 22.2807 272.295 22.0918C272.295 22.0918 272.288 21.9264 272.213 21.968C272.309 21.8362 272.219 22.0952 272.138 22.5704L271.657 24.6442L269.781 32.2615C268.132 38.7086 265.918 47.603 263.462 57.3749L257.208 82.4983C256.444 85.6427 255.82 88.2327 255.357 90.1272C255.165 90.9643 255.018 91.6593 254.889 92.2004C254.822 92.4827 254.779 92.7704 254.762 93.0601Z" fill="#263238"/>
<path d="M268.776 34.8556C268.76 46.5183 268.734 58.2452 266.634 69.7217C264.534 81.1982 260.25 92.493 252.581 101.277C258.889 79.3673 264.295 57.2179 268.8 34.829" fill="black"/>
<path d="M280.33 58.6533C280.501 57.9978 280.105 57.3218 279.451 57.151L292.742 60.6184L292.12 63.002L278.829 59.5346C279.483 59.7054 280.159 59.3088 280.33 58.6533ZM279.451 57.151C278.796 56.9803 278.12 57.3768 277.949 58.0323L278.26 56.8405L279.451 57.151ZM278.829 59.5346L277.638 59.2241L277.949 58.0323C277.778 58.6878 278.174 59.3638 278.829 59.5346ZM279.813 55.7607C280.805 56.0194 281.533 56.8032 281.732 57.7462C281.817 58.1503 281.833 58.5786 281.719 59.0156C281.605 59.4526 281.402 59.824 281.11 60.1297C280.456 60.8501 279.458 61.1838 278.466 60.9251C277.038 60.5524 276.188 59.1002 276.561 57.6701C276.934 56.2399 278.385 55.3881 279.813 55.7607ZM278.829 59.5346C279.483 59.7054 280.159 59.3088 280.33 58.6533C280.501 57.9978 280.105 57.3218 279.451 57.151C278.796 56.9803 278.12 57.3768 277.949 58.0323C277.778 58.6878 278.174 59.3638 278.829 59.5346Z" fill="#BBBBBB"/>
<path d="M279.828 63.8263C280.82 64.0851 281.548 64.8689 281.747 65.8119C281.832 66.216 281.848 66.6443 281.734 67.0812C281.62 67.5182 281.417 67.8896 281.125 68.1954C280.471 68.9158 279.473 69.2495 278.481 68.9907C277.053 68.6181 276.203 67.1659 276.576 65.7357C276.949 64.3056 278.4 63.4537 279.828 63.8263ZM278.844 67.6003C279.498 67.771 280.174 67.3745 280.345 66.719C280.516 66.0635 280.12 65.3875 279.466 65.2167C278.811 65.0459 278.135 65.4425 277.964 66.098C277.793 66.7535 278.189 67.4295 278.844 67.6003ZM278.844 67.6003L277.653 67.2898L277.964 66.098C277.793 66.7535 278.189 67.4295 278.844 67.6003ZM279.466 65.2167C278.811 65.0459 278.135 65.4425 277.964 66.098L278.275 64.9062L279.466 65.2167ZM280.345 66.719C280.516 66.0635 280.12 65.3875 279.466 65.2167L290.774 68.1665L290.152 70.5501L278.844 67.6003C279.498 67.771 280.174 67.3745 280.345 66.719Z" fill="#BBBBBB"/>
<path d="M279.843 71.8915C280.835 72.1503 281.562 72.9342 281.761 73.8771C281.847 74.2812 281.862 74.7095 281.748 75.1465C281.634 75.5835 281.431 75.9549 281.139 76.2606C280.485 76.981 279.487 77.3147 278.495 77.056C277.067 76.6833 276.217 75.2311 276.59 73.801C276.963 72.3709 278.414 71.5189 279.843 71.8915ZM278.858 75.6655C279.513 75.8363 280.188 75.4398 280.359 74.7843C280.53 74.1288 280.135 73.4528 279.48 73.282C278.825 73.1112 278.15 73.5078 277.979 74.1633C277.808 74.8187 278.203 75.4948 278.858 75.6655ZM278.858 75.6655L277.668 75.355L277.979 74.1633C277.808 74.8187 278.203 75.4948 278.858 75.6655ZM279.48 73.282C278.825 73.1112 278.15 73.5078 277.979 74.1633L278.29 72.9714L279.48 73.282ZM280.359 74.7843C280.53 74.1288 280.135 73.4528 279.48 73.282L288.804 75.7143L288.182 78.0979L278.858 75.6655C279.513 75.8363 280.188 75.4398 280.359 74.7843Z" fill="#BBBBBB"/>
<path d="M353.746 76.5323C354.4 75.8119 355.398 75.4782 356.39 75.737C357.818 76.1096 358.668 77.5618 358.295 78.992C357.922 80.4221 356.471 81.2741 355.043 80.9015C354.051 80.6427 353.323 79.8588 353.124 78.9158C353.039 78.5117 353.023 78.0835 353.137 77.6465C353.251 77.2095 353.454 76.8381 353.746 76.5323ZM356.906 78.6297C357.077 77.9743 356.682 77.2982 356.027 77.1274C355.372 76.9567 354.697 77.3532 354.526 78.0087C354.355 78.6642 354.751 79.3402 355.405 79.511C356.06 79.6818 356.735 79.2852 356.906 78.6297ZM356.027 77.1274C355.372 76.9567 354.697 77.3532 354.526 78.0087C354.355 78.6642 354.751 79.3402 355.405 79.511L342.312 76.0954L342.934 73.7118L356.027 77.1274ZM356.027 77.1274L357.217 77.4379L356.906 78.6297C357.077 77.9743 356.682 77.2982 356.027 77.1274ZM356.906 78.6297L356.596 79.8215L355.405 79.511C356.06 79.6818 356.735 79.2852 356.906 78.6297Z" fill="#BBBBBB"/>
<path d="M349.793 83.5627C350.447 82.8423 351.445 82.5087 352.437 82.7675C353.866 83.1401 354.716 84.5923 354.343 86.0224C353.969 87.4526 352.518 88.3045 351.09 87.9319C350.098 87.6731 349.37 86.8893 349.171 85.9463C349.086 85.5422 349.071 85.1139 349.185 84.6769C349.299 84.2399 349.501 83.8685 349.793 83.5627ZM352.954 85.6602C353.125 85.0047 352.729 84.3287 352.075 84.1579C351.42 83.9871 350.744 84.3837 350.573 85.0392C350.402 85.6946 350.798 86.3707 351.453 86.5414C352.107 86.7122 352.783 86.3157 352.954 85.6602ZM352.075 84.1579C351.42 83.9871 350.744 84.3837 350.573 85.0392C350.402 85.6946 350.798 86.3707 351.453 86.5414L340.343 83.6434L340.965 81.2598L352.075 84.1579ZM352.075 84.1579L353.265 84.4684L352.954 85.6602C353.125 85.0047 352.729 84.3287 352.075 84.1579ZM352.954 85.6602L352.643 86.8519L351.453 86.5414C352.107 86.7122 352.783 86.3157 352.954 85.6602Z" fill="#BBBBBB"/>
<path d="M345.84 90.5928C346.494 89.8724 347.492 89.5387 348.484 89.7975C349.912 90.1701 350.762 91.6223 350.389 93.0524C350.016 94.4826 348.565 95.3345 347.137 94.9619C346.145 94.7031 345.417 93.9193 345.218 92.9764C345.133 92.5722 345.117 92.1439 345.231 91.7069C345.345 91.2699 345.548 90.8986 345.84 90.5928ZM349.001 92.6902C349.172 92.0347 348.776 91.3587 348.121 91.1879C347.467 91.0171 346.791 91.4137 346.62 92.0692C346.449 92.7247 346.845 93.4007 347.499 93.5715C348.154 93.7422 348.83 93.3457 349.001 92.6902ZM348.121 91.1879C347.467 91.0171 346.791 91.4137 346.62 92.0692C346.449 92.7247 346.845 93.4007 347.499 93.5715L338.374 91.1909L338.996 88.8073L348.121 91.1879ZM348.121 91.1879L349.312 91.4984L349.001 92.6902C349.172 92.0347 348.776 91.3587 348.121 91.1879ZM349.001 92.6902L348.69 93.882L347.499 93.5715C348.154 93.7422 348.83 93.3457 349.001 92.6902Z" fill="#BBBBBB"/>
<path d="M320.74 56.0415L323.435 45.7127C323.435 45.7127 329.316 52.0838 335.657 55.796C341.574 59.2699 348.022 59.8914 348.022 59.8914L336.451 104.246L303.277 122.98L304.003 120.199L334.68 102.914L343.442 69.3253L320.74 56.0415ZM307.844 48.5405C315.171 48.394 323.435 45.7127 323.435 45.7127L320.74 56.0415L294.442 56.5427L285.679 90.1312L304.003 120.199L303.277 122.98L283.488 90.4082L295.059 46.0539C295.059 46.0539 300.99 48.6617 307.844 48.5405Z" fill="#BBBBBB"/>
<path d="M326.737 91.1259C327.392 91.2966 327.788 91.9727 327.617 92.6282C327.446 93.2836 326.77 93.6802 326.115 93.5094C325.461 93.3387 325.065 92.6626 325.236 92.0071C325.407 91.3517 326.083 90.9551 326.737 91.1259ZM326.737 91.1259C327.392 91.2966 327.788 91.9727 327.617 92.6282C327.446 93.2836 326.77 93.6802 326.115 93.5094C325.461 93.3387 325.065 92.6626 325.236 92.0071C325.407 91.3517 326.083 90.9551 326.737 91.1259ZM326.737 91.1259C327.392 91.2966 327.788 91.9727 327.617 92.6282C327.446 93.2836 326.77 93.6802 326.115 93.5094C325.461 93.3387 325.065 92.6626 325.236 92.0071C325.407 91.3517 326.083 90.9551 326.737 91.1259ZM326.737 91.1259C327.392 91.2966 327.788 91.9727 327.617 92.6282C327.446 93.2836 326.77 93.6802 326.115 93.5094C325.461 93.3387 325.065 92.6626 325.236 92.0071C325.407 91.3517 326.083 90.9551 326.737 91.1259ZM329.432 80.7971C330.086 80.9678 330.482 81.6439 330.311 82.2994C330.14 82.9549 329.465 83.3514 328.81 83.1806C328.155 83.0098 327.76 82.3338 327.931 81.6784C328.102 81.0229 328.777 80.6263 329.432 80.7971ZM329.432 80.7971C330.086 80.9678 330.482 81.6439 330.311 82.2994C330.14 82.9549 329.465 83.3514 328.81 83.1806C328.155 83.0098 327.76 82.3338 327.931 81.6784C328.102 81.0229 328.777 80.6263 329.432 80.7971ZM329.432 80.7971C330.086 80.9678 330.482 81.6439 330.311 82.2994C330.14 82.9549 329.465 83.3514 328.81 83.1806C328.155 83.0098 327.76 82.3338 327.931 81.6784C328.102 81.0229 328.777 80.6263 329.432 80.7971ZM303.599 101.85C304.253 102.02 304.649 102.696 304.478 103.352C304.307 104.007 303.631 104.404 302.977 104.233C302.322 104.062 301.926 103.386 302.097 102.731C302.268 102.075 302.944 101.679 303.599 101.85ZM303.599 101.85C304.253 102.02 304.649 102.696 304.478 103.352C304.307 104.007 303.631 104.404 302.977 104.233C302.322 104.062 301.926 103.386 302.097 102.731C302.268 102.075 302.944 101.679 303.599 101.85ZM303.599 101.85C304.253 102.02 304.649 102.696 304.478 103.352C304.307 104.007 303.631 104.404 302.977 104.233C302.322 104.062 301.926 103.386 302.097 102.731C302.268 102.075 302.944 101.679 303.599 101.85ZM298.17 83.6737C298.824 83.8445 299.22 84.5205 299.049 85.176C298.878 85.8315 298.203 86.228 297.548 86.0572C296.893 85.8865 296.498 85.2104 296.669 84.5549C296.84 83.8994 297.515 83.5029 298.17 83.6737ZM298.17 83.6737C298.824 83.8445 299.22 84.5205 299.049 85.176C298.878 85.8315 298.203 86.228 297.548 86.0572C296.893 85.8865 296.498 85.2104 296.669 84.5549C296.84 83.8994 297.515 83.5029 298.17 83.6737ZM298.17 83.6737C298.824 83.8445 299.22 84.5205 299.049 85.176C298.878 85.8315 298.203 86.228 297.548 86.0572C296.893 85.8865 296.498 85.2104 296.669 84.5549C296.84 83.8994 297.515 83.5029 298.17 83.6737ZM303.599 101.85C304.253 102.02 304.649 102.696 304.478 103.352C304.307 104.007 303.631 104.404 302.977 104.233C302.322 104.062 301.926 103.386 302.097 102.731C302.268 102.075 302.944 101.679 303.599 101.85ZM298.17 83.6737C298.824 83.8445 299.22 84.5205 299.049 85.176C298.878 85.8315 298.203 86.228 297.548 86.0572C296.893 85.8865 296.498 85.2104 296.669 84.5549C296.84 83.8994 297.515 83.5029 298.17 83.6737ZM303.462 58.5144L297.265 82.2707C296.317 82.4903 295.539 83.1995 295.28 84.1927C294.907 85.6228 295.757 87.0751 297.185 87.4477C298.614 87.8203 300.065 86.9684 300.438 85.5382C300.697 84.5451 300.37 83.5262 299.645 82.8917L306.019 58.4601L313.684 58.3169L302.698 100.427C301.751 100.646 300.973 101.356 300.714 102.349C300.341 103.779 301.191 105.231 302.619 105.604C304.048 105.976 305.499 105.124 305.872 103.694C306.131 102.701 305.803 101.682 305.079 101.048L316.241 58.2626L320.071 58.201L304.629 117.393L294.836 101.325L296.51 94.9089L289.387 83.2282L295.797 58.6575L303.462 58.5144ZM329.432 80.7971C330.086 80.9678 330.482 81.6439 330.311 82.2994C330.14 82.9549 329.465 83.3514 328.81 83.1806C328.155 83.0098 327.76 82.3338 327.931 81.6784C328.102 81.0229 328.777 80.6263 329.432 80.7971ZM326.737 91.1259C327.392 91.2966 327.788 91.9727 327.617 92.6282C327.446 93.2836 326.77 93.6802 326.115 93.5094C325.461 93.3387 325.065 92.6626 325.236 92.0071C325.407 91.3517 326.083 90.9551 326.737 91.1259ZM326.737 91.1259C327.392 91.2966 327.788 91.9727 327.617 92.6282C327.446 93.2836 326.77 93.6802 326.115 93.5094C325.461 93.3387 325.065 92.6626 325.236 92.0071C325.407 91.3517 326.083 90.9551 326.737 91.1259ZM326.737 91.1259C327.392 91.2966 327.788 91.9727 327.617 92.6282C327.446 93.2836 326.77 93.6802 326.115 93.5094C325.461 93.3387 325.065 92.6626 325.236 92.0071C325.407 91.3517 326.083 90.9551 326.737 91.1259ZM326.737 91.1259C327.392 91.2966 327.788 91.9727 327.617 92.6282C327.446 93.2836 326.77 93.6802 326.115 93.5094C325.461 93.3387 325.065 92.6626 325.236 92.0071C325.407 91.3517 326.083 90.9551 326.737 91.1259ZM326.737 91.1259C327.392 91.2966 327.788 91.9727 327.617 92.6282C327.446 93.2836 326.77 93.6802 326.115 93.5094C325.461 93.3387 325.065 92.6626 325.236 92.0071C325.407 91.3517 326.083 90.9551 326.737 91.1259ZM332.206 65.2913L328.532 79.3742C327.584 79.5938 326.806 80.3031 326.547 81.2962C326.174 82.7264 327.024 84.1786 328.452 84.5512C329.881 84.9238 331.332 84.0719 331.705 82.6418C331.964 81.6486 331.637 80.6297 330.912 79.9952L334.415 66.5678L341.029 70.4568L332.945 101.443L324.005 106.473L327.021 94.9124C327.968 94.6928 328.746 93.9836 329.005 92.9904C329.378 91.5603 328.528 90.1081 327.1 89.7355C325.672 89.3629 324.22 90.2148 323.847 91.6449C323.588 92.6381 323.916 93.6569 324.64 94.2914L321.023 108.156L312.083 113.185L325.587 61.422L332.206 65.2913ZM326.737 91.1259C327.392 91.2966 327.788 91.9727 327.617 92.6282C327.446 93.2836 326.77 93.6802 326.115 93.5094C325.461 93.3387 325.065 92.6626 325.236 92.0071C325.407 91.3517 326.083 90.9551 326.737 91.1259ZM326.737 91.1259C327.392 91.2966 327.788 91.9727 327.617 92.6282C327.446 93.2836 326.77 93.6802 326.115 93.5094C325.461 93.3387 325.065 92.6626 325.236 92.0071C325.407 91.3517 326.083 90.9551 326.737 91.1259ZM323.383 60.1257L309.101 114.868L304.629 117.393L320.071 58.201L323.383 60.1257ZM326.737 91.1259C327.392 91.2966 327.788 91.9727 327.617 92.6282C327.446 93.2836 326.77 93.6802 326.115 93.5094C325.461 93.3387 325.065 92.6626 325.236 92.0071C325.407 91.3517 326.083 90.9551 326.737 91.1259ZM326.737 91.1259C327.392 91.2966 327.788 91.9727 327.617 92.6282C327.446 93.2836 326.77 93.6802 326.115 93.5094C325.461 93.3387 325.065 92.6626 325.236 92.0071C325.407 91.3517 326.083 90.9551 326.737 91.1259ZM326.737 91.1259C327.392 91.2966 327.788 91.9727 327.617 92.6282C327.446 93.2836 326.77 93.6802 326.115 93.5094C325.461 93.3387 325.065 92.6626 325.236 92.0071C325.407 91.3517 326.083 90.9551 326.737 91.1259ZM326.737 91.1259C327.392 91.2966 327.788 91.9727 327.617 92.6282C327.446 93.2836 326.77 93.6802 326.115 93.5094C325.461 93.3387 325.065 92.6626 325.236 92.0071C325.407 91.3517 326.083 90.9551 326.737 91.1259Z" fill="#C51A14"/>
<path d="M186.589 2.35682C186.448 1.86411 186.121 1.44629 185.678 1.19306C185.235 0.93982 184.711 0.871297 184.219 1.00212C183.726 1.13294 183.304 1.45271 183.043 1.8929C182.782 2.33309 182.703 2.85863 182.823 3.35687L283.761 382.229L286.837 381.405L186.589 2.35682Z" fill="#7A4017"/>
<path d="M188.698 10.7642C188.698 10.7642 139.943 40.921 103.27 42.1822C66.597 43.4434 56.8464 56.856 33.9792 80.3445C33.9792 80.3445 81.9505 84.1194 85.9976 95.0339C85.9976 95.0339 36.216 131.096 27.9593 152.709C27.9593 152.709 63.0915 142.01 70.366 139.331C94.5236 130.342 140.423 136.902 158.265 131.362C178.019 125.206 197.309 106.285 213.455 103.943L188.698 10.7642Z" fill="black"/>
<path d="M197.793 92.7203C197.676 92.4965 197.592 92.2565 197.545 92.008L196.961 89.9679C196.459 88.0844 195.771 85.5169 194.917 82.3812C193.231 75.9323 190.937 67.1108 188.47 57.3129C186.003 47.5149 183.84 38.6101 182.345 32.1444C181.597 28.9242 181.026 26.2983 180.664 24.4212C180.488 23.5083 180.367 22.8019 180.312 22.3151C180.277 22.1294 180.26 21.9408 180.26 21.7519C180.26 21.7519 180.268 21.5866 180.342 21.6282C180.246 21.4964 180.337 21.7554 180.417 22.2306L180.898 24.3043L182.775 31.9216C184.423 38.3688 186.638 47.2632 189.093 57.0351L195.348 82.1585C196.112 85.3029 196.735 87.8929 197.198 89.7874C197.39 90.6245 197.537 91.3195 197.666 91.8606C197.734 92.1429 197.776 92.4305 197.793 92.7203Z" fill="#263238"/>
<path d="M183.78 34.5157C183.796 46.1785 183.822 57.9054 185.921 69.3819C188.021 80.8583 192.306 92.1532 199.974 100.937C193.666 79.0275 188.26 56.8781 183.755 34.4891" fill="black"/>
<path d="M100.413 79.8028C99.609 80.0181 98.8608 80.0695 98.1681 79.957C97.4712 79.829 96.8788 79.5653 96.3908 79.166C95.9183 78.7626 95.5879 78.2714 95.3996 77.6924C95.322 77.4647 95.1797 76.9645 94.9726 76.1917L97.6618 75.4712C97.7777 75.9039 97.8781 76.2166 97.9628 76.4092C98.028 76.5905 98.1404 76.7012 98.3002 76.7412C98.4714 76.7616 98.7115 76.7304 99.0206 76.6476L101.663 75.9395C102.544 75.7034 102.914 75.3227 102.774 74.7972C102.745 74.689 102.67 74.535 102.55 74.3352C102.065 73.637 101.341 72.8206 100.378 71.8859C99.4116 70.9358 98.3927 70.0078 97.3218 69.1022L99.1878 66.515C100.455 67.5339 101.647 68.6141 102.764 69.7558C103.878 70.882 104.681 71.9008 105.174 72.8124C105.394 73.2007 105.566 73.6266 105.69 74.0903C106.005 75.2648 105.854 76.3405 105.238 77.3173C104.633 78.2744 103.604 78.9477 102.151 79.3369L100.413 79.8028ZM105.384 61.401L108.291 60.473L113.186 76.3304L110.303 77.2522L105.384 61.401ZM120.29 74.4768C119.486 74.6921 118.738 74.7435 118.045 74.631C117.348 74.503 116.756 74.2393 116.268 73.84C115.795 73.4366 115.465 72.9453 115.277 72.3663C115.199 72.1387 115.057 71.6385 114.85 70.8657L117.539 70.1452C117.655 70.5779 117.755 70.8906 117.84 71.0832C117.905 71.2645 118.017 71.3752 118.177 71.4152C118.348 71.4356 118.588 71.4044 118.898 71.3216L121.262 70.688C122.143 70.4519 122.513 70.0712 122.372 69.5457C122.347 69.453 122.321 69.3855 122.293 69.3433L122.149 69.0837L118.614 62.751L121.254 61.1988L124.819 67.5485C125.239 68.3138 125.564 68.8148 125.793 69.0516C126.033 69.2687 126.339 69.3276 126.71 69.2282L127.846 68.9239L128.472 70.5201L128.728 72.2157L127.592 72.5201C126.572 72.7934 125.636 72.6714 124.786 72.154C124.122 73.0772 123.11 73.721 121.75 74.0855L120.29 74.4768ZM127.608 68.9877L131.155 68.0373C131.804 67.8634 132.258 67.6423 132.517 67.374C132.792 67.1016 132.867 66.7335 132.743 66.2699C132.677 66.0226 132.554 65.7491 132.374 65.4494L130.545 62.2375L133.126 60.6514L135.069 64.0069C135.372 64.5219 135.595 65.0421 135.735 65.5675C135.976 66.4639 135.978 67.308 135.743 68.0998C135.504 68.8762 135.063 69.5492 134.421 70.1189C133.774 70.6731 132.979 71.0766 132.037 71.3292L128.49 72.2796L127.608 68.9877ZM127.744 74.6906L130.434 73.9701L131.16 76.6824L128.471 77.403L127.744 74.6906ZM132.497 73.4172L135.186 72.6967L135.913 75.409L133.223 76.1296L132.497 73.4172ZM141.282 71.7837C143.006 70.9242 144.211 70.2868 144.894 69.8717C145.578 69.4565 146.02 69.0649 146.219 68.6967C146.419 68.3285 146.436 67.8683 146.272 67.3161C145.594 67.6302 144.784 67.9136 143.841 68.1662C142.976 68.3981 142.149 68.4042 141.361 68.1846C140.574 67.965 139.889 67.5438 139.308 66.9209C138.743 66.2939 138.338 65.5245 138.094 64.6127C137.849 63.7008 137.815 62.7991 137.99 61.9073C138.176 60.996 138.553 60.2076 139.12 59.5422C139.703 58.8726 140.427 58.4219 141.292 58.19C142.606 57.838 143.836 58.0385 144.982 58.7916C146.123 59.5292 146.993 60.6711 147.589 62.2174L148.99 65.8673C149.087 66.1063 149.193 66.4422 149.309 66.8749C149.624 68.0495 149.604 69.057 149.249 69.8974C148.899 70.7532 148.216 71.541 147.199 72.2605C146.187 72.9956 144.694 73.8513 142.719 74.8276L141.282 71.7837ZM141.044 63.847C141.301 64.8052 141.939 65.1476 142.959 64.8743C143.747 64.6631 144.451 64.4165 145.071 64.1343L144.803 63.4112C144.515 62.6437 144.145 62.0968 143.693 61.7707C143.237 61.429 142.746 61.3286 142.221 61.4694C141.695 61.6102 141.328 61.9075 141.118 62.3612C140.924 62.8108 140.899 63.3061 141.044 63.847ZM150.648 69.299L151.974 68.4966C152.992 67.909 153.676 67.4026 154.026 66.9775C154.392 66.5484 154.489 66.0169 154.32 65.3833C154.291 65.2751 154.228 65.1015 154.13 64.8625L151.42 58.4577L154.2 57.2408L156.171 61.9057L156.923 63.692C157.134 64.2318 157.268 64.6099 157.326 64.8262C157.707 66.2481 157.58 67.4747 156.945 68.5061C156.315 69.553 155.196 70.5401 153.59 71.4676L152.264 72.27L150.648 69.299ZM164.299 65.6412L165.625 64.8388C166.643 64.2511 167.328 63.7448 167.678 63.3197C168.043 62.8905 168.141 62.3591 167.971 61.7255C167.942 61.6173 167.879 61.4437 167.782 61.2047L165.072 54.7999L167.851 53.5829L169.822 58.2479L170.574 60.0341C170.785 60.5739 170.919 60.952 170.977 61.1684C171.358 62.5902 171.231 63.8169 170.597 64.8483C169.966 65.8951 168.847 66.8823 167.241 67.8097L165.915 68.6122L164.299 65.6412ZM163.222 49.0093L166.259 48.1956L167.079 51.2556L164.042 52.0693L163.222 49.0093ZM169.498 44.2219L172.405 43.2939L177.3 59.1513L174.416 60.0731L169.498 44.2219ZM121.402 107.382C120.861 107.527 120.356 107.464 119.885 107.192C119.415 106.921 119.108 106.514 118.963 105.973C118.822 105.448 118.889 104.958 119.165 104.503C119.436 104.033 119.843 103.725 120.384 103.58C120.894 103.443 121.384 103.511 121.854 103.782C122.32 104.039 122.624 104.429 122.764 104.955C122.905 105.48 122.842 105.986 122.575 106.472C122.303 106.942 121.912 107.245 121.402 107.382ZM129.394 105.241C128.853 105.386 128.347 105.322 127.877 105.051C127.407 104.779 127.099 104.373 126.954 103.832C126.813 103.307 126.881 102.817 127.156 102.362C127.428 101.891 127.834 101.584 128.375 101.439C128.885 101.302 129.375 101.37 129.846 101.641C130.312 101.897 130.615 102.288 130.756 102.813C130.897 103.339 130.834 103.844 130.566 104.33C130.295 104.801 129.904 105.104 129.394 105.241ZM137.385 103.099C136.844 103.244 136.339 103.181 135.869 102.909C135.398 102.638 135.091 102.232 134.946 101.691C134.805 101.165 134.872 100.675 135.148 100.22C135.419 99.75 135.826 99.4424 136.367 99.2975C136.877 99.1608 137.367 99.2283 137.837 99.4998C138.303 99.7559 138.607 100.147 138.748 100.672C138.888 101.198 138.825 101.703 138.558 102.189C138.286 102.659 137.895 102.963 137.385 103.099ZM144.561 104.034C146.27 103.179 147.459 102.545 148.127 102.134C148.8 101.739 149.245 101.363 149.464 101.006C149.703 100.66 149.749 100.242 149.601 99.7518L147.12 100.416C145.76 100.781 144.557 100.648 143.51 100.017C142.474 99.3671 141.762 98.3157 141.373 96.8629C141.128 95.9511 141.094 95.0493 141.269 94.1576C141.455 93.2462 141.832 92.4579 142.399 91.7924C142.982 91.1228 143.706 90.6721 144.571 90.4402C145.421 90.2124 146.256 90.2372 147.076 90.5145C147.907 90.7722 148.648 91.2526 149.301 91.9558C149.964 92.6393 150.489 93.4843 150.874 94.4908L151.361 95.7518L152.683 95.3977L153.309 96.9939L153.565 98.6896L153.495 98.7082L152.545 98.9629C152.887 100.18 152.883 101.216 152.533 102.072C152.198 102.924 151.524 103.717 150.512 104.452C149.504 105.202 147.999 106.078 145.998 107.078L144.561 104.034ZM144.317 96.074C144.453 96.584 144.661 96.926 144.939 97.0998C145.233 97.2695 145.666 97.2778 146.238 97.1245L148.394 96.5469L148.047 95.6212C147.743 94.8579 147.367 94.3208 146.919 94.0101C146.483 93.6798 146.01 93.583 145.5 93.7196C144.974 93.8604 144.607 94.1577 144.397 94.6114C144.198 95.0456 144.172 95.5331 144.317 96.074ZM165.12 95.5933C163.853 95.9329 162.582 95.735 161.309 94.9996L161.247 95.1403C161.023 95.6642 160.666 96.1243 160.176 96.5206C159.701 96.9128 159.101 97.2063 158.374 97.4009L153.344 98.7488L152.462 95.4569L157.538 94.0966C157.848 94.0138 158.049 93.9017 158.144 93.7604C158.299 93.5366 158.346 93.3087 158.284 93.0769C158.23 92.876 158.109 92.7014 157.92 92.5533L150.882 86.687L150.866 84.0325L158.432 78.7007L160.295 81.4812L154.507 85.5664L159.618 89.9864L160.121 90.4728C161.06 91.3807 161.818 91.956 162.397 92.1985C162.975 92.441 163.589 92.4754 164.238 92.3014L164.563 92.2145L165.189 93.8107L165.445 95.5063L165.12 95.5933ZM154.885 76.4957L156.137 78.2968L151.028 81.8525L149.775 80.0514L154.885 76.4957ZM164.324 92.2783L166.156 91.7876C166.82 91.6095 167.282 91.3864 167.542 91.1181C167.817 90.8457 167.892 90.4776 167.768 90.014C167.705 89.7822 167.583 89.5087 167.399 89.1935L165.546 85.9878L168.15 84.3954L170.003 87.6011C170.319 88.1625 170.554 88.729 170.707 89.3009C171.072 90.6609 170.915 91.8705 170.238 92.9298C169.557 93.9737 168.491 94.6902 167.038 95.0795L165.206 95.5702L164.324 92.2783ZM165.971 97.4028L169.031 96.5829L169.845 99.6197L166.784 100.44L165.971 97.4028Z" fill="white"/>
</g>
<defs>
<clipPath id="clip0_3320_4380">
<rect width="450" height="290" fill="white" transform="translate(0.5 0.500977)"/>
</clipPath>
</defs>
</svg>
