<svg width="402" height="402" viewBox="0 0 402 402" fill="none" xmlns="http://www.w3.org/2000/svg">
<path d="M383.461 122.225C383.461 119.006 386.095 116.371 389.315 116.371H323.942V128.08H389.315C386.095 128.08 383.461 125.445 383.461 122.225ZM389.315 116.371C392.535 116.371 395.17 119.006 395.17 122.225V116.371H389.315ZM389.315 128.08H395.17V122.225C395.17 125.445 392.535 128.08 389.315 128.08ZM389.315 109.541C384.437 109.541 380.143 112.273 378.094 116.371C377.216 118.127 376.631 120.079 376.631 122.225C376.631 124.372 377.119 126.324 378.094 128.08C380.241 132.178 384.437 134.91 389.315 134.91C396.341 134.91 402 129.251 402 122.225C402 115.2 396.341 109.541 389.315 109.541ZM389.315 128.08C386.095 128.08 383.461 125.445 383.461 122.225C383.461 119.006 386.095 116.371 389.315 116.371C392.535 116.371 395.17 119.006 395.17 122.225C395.17 125.445 392.535 128.08 389.315 128.08Z" fill="#BBBBBB"/>
<path d="M379.558 146.619C374.679 146.619 370.386 149.351 368.337 153.449C367.459 155.206 366.874 157.157 366.874 159.304C366.874 161.45 367.361 163.402 368.337 165.158C370.484 169.256 374.679 171.988 379.558 171.988C386.583 171.988 392.243 166.329 392.243 159.304C392.243 152.278 386.583 146.619 379.558 146.619ZM379.558 165.158C376.338 165.158 373.704 162.523 373.704 159.304C373.704 156.084 376.338 153.449 379.558 153.449C382.778 153.449 385.412 156.084 385.412 159.304C385.412 162.523 382.778 165.158 379.558 165.158ZM379.558 165.158H385.412V159.304C385.412 162.523 382.778 165.158 379.558 165.158ZM379.558 153.449C382.778 153.449 385.412 156.084 385.412 159.304V153.449H379.558ZM373.704 159.304C373.704 156.084 376.338 153.449 379.558 153.449H323.942V165.158H379.558C376.338 165.158 373.704 162.523 373.704 159.304Z" fill="#BBBBBB"/>
<path d="M369.801 183.695C364.922 183.695 360.629 186.427 358.58 190.525C357.702 192.282 357.116 194.233 357.116 196.38C357.116 198.526 357.604 200.478 358.58 202.234C360.727 206.332 364.922 209.064 369.801 209.064C376.826 209.064 382.485 203.405 382.485 196.38C382.485 189.355 376.826 183.695 369.801 183.695ZM369.801 202.234C366.581 202.234 363.946 199.6 363.946 196.38C363.946 193.16 366.581 190.525 369.801 190.525C373.021 190.525 375.655 193.16 375.655 196.38C375.655 199.6 373.021 202.234 369.801 202.234ZM369.801 202.234H375.655V196.38C375.655 199.6 373.021 202.234 369.801 202.234ZM369.801 190.525C373.021 190.525 375.655 193.16 375.655 196.38V190.525H369.801ZM363.946 196.38C363.946 193.16 366.581 190.525 369.801 190.525H323.942V202.234H369.801C366.581 202.234 363.946 199.6 363.946 196.38Z" fill="#BBBBBB"/>
<path d="M23.9055 116.371C21.7589 112.273 17.5633 109.541 12.6846 109.541C5.6594 109.541 0.000183105 115.2 0.000183105 122.225C0.000183105 129.251 5.6594 134.91 12.6846 134.91C17.5633 134.91 21.8565 132.178 23.9055 128.08C24.7837 126.324 25.3691 124.372 25.3691 122.225C25.3691 120.079 24.8812 118.127 23.9055 116.371ZM6.83028 122.225C6.83028 119.006 9.46474 116.371 12.6846 116.371C15.9045 116.371 18.539 119.006 18.539 122.225C18.539 125.445 15.9045 128.08 12.6846 128.08C9.46474 128.08 6.83028 125.445 6.83028 122.225ZM12.6846 116.371C15.9045 116.371 18.539 119.006 18.539 122.225C18.539 125.445 15.9045 128.08 12.6846 128.08H77.0827V116.371H12.6846ZM12.6846 116.371H6.83028V122.225C6.83028 119.006 9.46474 116.371 12.6846 116.371ZM6.83028 122.225V128.08H12.6846C9.46474 128.08 6.83028 125.445 6.83028 122.225Z" fill="#BBBBBB"/>
<path d="M33.6633 153.449C31.5167 149.351 27.3211 146.619 22.4425 146.619C15.4172 146.619 9.758 152.278 9.758 159.304C9.758 166.329 15.4172 171.988 22.4425 171.988C27.3211 171.988 31.6143 169.256 33.6633 165.158C34.5415 163.402 35.1269 161.45 35.1269 159.304C35.1269 157.157 34.639 155.206 33.6633 153.449ZM16.5881 159.304C16.5881 156.084 19.2226 153.449 22.4425 153.449C25.6624 153.449 28.2968 156.084 28.2968 159.304C28.2968 162.523 25.6624 165.158 22.4425 165.158C19.2226 165.158 16.5881 162.523 16.5881 159.304ZM22.4425 153.449C25.6624 153.449 28.2968 156.084 28.2968 159.304C28.2968 162.523 25.6624 165.158 22.4425 165.158H77.0832V153.449H22.4425ZM22.4425 153.449H16.5881V159.304C16.5881 156.084 19.2226 153.449 22.4425 153.449ZM16.5881 159.304V165.158H22.4425C19.2226 165.158 16.5881 162.523 16.5881 159.304Z" fill="#BBBBBB"/>
<path d="M43.4211 190.525C41.2745 186.427 37.0789 183.695 32.2003 183.695C25.175 183.695 19.5158 189.355 19.5158 196.38C19.5158 203.405 25.175 209.064 32.2003 209.064C37.0789 209.064 41.3721 206.332 43.4211 202.234C44.2993 200.478 44.8847 198.526 44.8847 196.38C44.8847 194.233 44.3969 192.282 43.4211 190.525ZM26.3459 196.38C26.3459 193.16 28.9804 190.525 32.2003 190.525C35.4202 190.525 38.0546 193.16 38.0546 196.38C38.0546 199.6 35.4202 202.234 32.2003 202.234C28.9804 202.234 26.3459 199.6 26.3459 196.38ZM32.2003 190.525C35.4202 190.525 38.0546 193.16 38.0546 196.38C38.0546 199.6 35.4202 202.234 32.2003 202.234H77.0837V190.525H32.2003ZM32.2003 190.525H26.3459V196.38C26.3459 193.16 28.9804 190.525 32.2003 190.525ZM26.3459 196.38V202.234H32.2003C28.9804 202.234 26.3459 199.6 26.3459 196.38Z" fill="#BBBBBB"/>
<path d="M200.514 61.73V10.9922C200.514 10.9922 165.778 33.2388 132.115 42.7033C100.697 51.5825 70.2541 46.7038 70.2541 46.7038V264.584L200.514 390.55V376.89L80.0114 260.583V95.5878L200.514 61.73ZM268.912 42.7033C235.347 33.2388 200.514 10.9922 200.514 10.9922V61.73L321.016 95.5878V260.583L200.514 376.89V390.55L330.773 264.486V46.6062C330.773 46.6062 300.331 51.4849 268.912 42.7033Z" fill="#BBBBBB"/>
<path d="M130.746 215.897C127.526 215.897 124.892 218.531 124.892 221.751C124.892 224.971 127.526 227.606 130.746 227.606C133.966 227.606 136.601 224.971 136.601 221.751C136.601 218.531 133.966 215.897 130.746 215.897ZM130.746 215.897C127.526 215.897 124.892 218.531 124.892 221.751C124.892 224.971 127.526 227.606 130.746 227.606C133.966 227.606 136.601 224.971 136.601 221.751C136.601 218.531 133.966 215.897 130.746 215.897ZM130.746 215.897C127.526 215.897 124.892 218.531 124.892 221.751C124.892 224.971 127.526 227.606 130.746 227.606C133.966 227.606 136.601 224.971 136.601 221.751C136.601 218.531 133.966 215.897 130.746 215.897ZM130.746 215.897C127.526 215.897 124.892 218.531 124.892 221.751C124.892 224.971 127.526 227.606 130.746 227.606C133.966 227.606 136.601 224.971 136.601 221.751C136.601 218.531 133.966 215.897 130.746 215.897ZM130.746 165.159C127.526 165.159 124.892 167.793 124.892 171.013C124.892 174.233 127.526 176.868 130.746 176.868C133.966 176.868 136.601 174.233 136.601 171.013C136.601 167.793 133.966 165.159 130.746 165.159ZM130.746 165.159C127.526 165.159 124.892 167.793 124.892 171.013C124.892 174.233 127.526 176.868 130.746 176.868C133.966 176.868 136.601 174.233 136.601 171.013C136.601 167.793 133.966 165.159 130.746 165.159ZM130.746 165.159C127.526 165.159 124.892 167.793 124.892 171.013C124.892 174.233 127.526 176.868 130.746 176.868C133.966 176.868 136.601 174.233 136.601 171.013C136.601 167.793 133.966 165.159 130.746 165.159ZM224.416 292.979C221.196 292.979 218.562 295.614 218.562 298.834C218.562 302.054 221.196 304.688 224.416 304.688C227.636 304.688 230.271 302.054 230.271 298.834C230.271 295.614 227.636 292.979 224.416 292.979ZM224.416 292.979C221.196 292.979 218.562 295.614 218.562 298.834C218.562 302.054 221.196 304.688 224.416 304.688C227.636 304.688 230.271 302.054 230.271 298.834C230.271 295.614 227.636 292.979 224.416 292.979ZM224.416 292.979C221.196 292.979 218.562 295.614 218.562 298.834C218.562 302.054 221.196 304.688 224.416 304.688C227.636 304.688 230.271 302.054 230.271 298.834C230.271 295.614 227.636 292.979 224.416 292.979ZM271.251 215.897C268.031 215.897 265.397 218.531 265.397 221.751C265.397 224.971 268.031 227.606 271.251 227.606C274.471 227.606 277.106 224.971 277.106 221.751C277.106 218.531 274.471 215.897 271.251 215.897ZM271.251 215.897C268.031 215.897 265.397 218.531 265.397 221.751C265.397 224.971 268.031 227.606 271.251 227.606C274.471 227.606 277.106 224.971 277.106 221.751C277.106 218.531 274.471 215.897 271.251 215.897ZM271.251 215.897C268.031 215.897 265.397 218.531 265.397 221.751C265.397 224.971 268.031 227.606 271.251 227.606C274.471 227.606 277.106 224.971 277.106 221.751C277.106 218.531 274.471 215.897 271.251 215.897ZM224.416 292.979C221.196 292.979 218.562 295.614 218.562 298.834C218.562 302.054 221.196 304.688 224.416 304.688C227.636 304.688 230.271 302.054 230.271 298.834C230.271 295.614 227.636 292.979 224.416 292.979ZM271.251 215.897C268.031 215.897 265.397 218.531 265.397 221.751C265.397 224.971 268.031 227.606 271.251 227.606C274.471 227.606 277.106 224.971 277.106 221.751C277.106 218.531 274.471 215.897 271.251 215.897ZM277.106 93.8333V210.53C281.204 212.677 283.936 216.873 283.936 221.751C283.936 228.776 278.276 234.436 271.251 234.436C264.226 234.436 258.567 228.776 258.567 221.751C258.567 216.873 261.299 212.579 265.397 210.53V90.5158L230.271 80.6609V287.515C234.369 289.662 237.101 293.857 237.101 298.736C237.101 305.761 231.441 311.421 224.416 311.421C217.391 311.421 211.732 305.761 211.732 298.736C211.732 293.857 214.464 289.564 218.562 287.515V77.3435L200.999 72.4648V363.232L265.397 301.078V269.562L312.232 224.386V103.688L277.106 93.8333ZM130.746 165.159C127.526 165.159 124.892 167.793 124.892 171.013C124.892 174.233 127.526 176.868 130.746 176.868C133.966 176.868 136.601 174.233 136.601 171.013C136.601 167.793 133.966 165.159 130.746 165.159ZM130.746 215.897C127.526 215.897 124.892 218.531 124.892 221.751C124.892 224.971 127.526 227.606 130.746 227.606C133.966 227.606 136.601 224.971 136.601 221.751C136.601 218.531 133.966 215.897 130.746 215.897ZM130.746 215.897C127.526 215.897 124.892 218.531 124.892 221.751C124.892 224.971 127.526 227.606 130.746 227.606C133.966 227.606 136.601 224.971 136.601 221.751C136.601 218.531 133.966 215.897 130.746 215.897ZM130.746 215.897C127.526 215.897 124.892 218.531 124.892 221.751C124.892 224.971 127.526 227.606 130.746 227.606C133.966 227.606 136.601 224.971 136.601 221.751C136.601 218.531 133.966 215.897 130.746 215.897ZM130.746 215.897C127.526 215.897 124.892 218.531 124.892 221.751C124.892 224.971 127.526 227.606 130.746 227.606C133.966 227.606 136.601 224.971 136.601 221.751C136.601 218.531 133.966 215.897 130.746 215.897ZM130.746 215.897C127.526 215.897 124.892 218.531 124.892 221.751C124.892 224.971 127.526 227.606 130.746 227.606C133.966 227.606 136.601 224.971 136.601 221.751C136.601 218.531 133.966 215.897 130.746 215.897ZM136.601 90.5158V159.695C140.699 161.841 143.431 166.037 143.431 170.916C143.431 177.941 137.772 183.6 130.746 183.6C123.721 183.6 118.062 177.941 118.062 170.916C118.062 166.037 120.794 161.744 124.892 159.695V93.7357L89.7658 103.688V255.902L124.892 289.759V232.972C120.794 230.825 118.062 226.63 118.062 221.751C118.062 214.726 123.721 209.067 130.746 209.067C137.772 209.067 143.431 214.726 143.431 221.751C143.431 226.63 140.699 230.923 136.601 232.972V301.078L171.727 334.936V80.6609L136.601 90.5158ZM130.746 215.897C127.526 215.897 124.892 218.531 124.892 221.751C124.892 224.971 127.526 227.606 130.746 227.606C133.966 227.606 136.601 224.971 136.601 221.751C136.601 218.531 133.966 215.897 130.746 215.897ZM130.746 215.897C127.526 215.897 124.892 218.531 124.892 221.751C124.892 224.971 127.526 227.606 130.746 227.606C133.966 227.606 136.601 224.971 136.601 221.751C136.601 218.531 133.966 215.897 130.746 215.897ZM183.436 77.3435V346.254L200.999 363.232V72.4648L183.436 77.3435ZM130.746 215.897C127.526 215.897 124.892 218.531 124.892 221.751C124.892 224.971 127.526 227.606 130.746 227.606C133.966 227.606 136.601 224.971 136.601 221.751C136.601 218.531 133.966 215.897 130.746 215.897ZM130.746 215.897C127.526 215.897 124.892 218.531 124.892 221.751C124.892 224.971 127.526 227.606 130.746 227.606C133.966 227.606 136.601 224.971 136.601 221.751C136.601 218.531 133.966 215.897 130.746 215.897ZM130.746 215.897C127.526 215.897 124.892 218.531 124.892 221.751C124.892 224.971 127.526 227.606 130.746 227.606C133.966 227.606 136.601 224.971 136.601 221.751C136.601 218.531 133.966 215.897 130.746 215.897ZM130.746 215.897C127.526 215.897 124.892 218.531 124.892 221.751C124.892 224.971 127.526 227.606 130.746 227.606C133.966 227.606 136.601 224.971 136.601 221.751C136.601 218.531 133.966 215.897 130.746 215.897Z" fill="#C51A14"/>
</svg>
